<svg xmlns="http://www.w3.org/2000/svg" viewBox="0 0 89.3 65.78" fill="#333333">
  <g id="Layer_2" data-name="Layer 2">
    <g id="Layer_1-2" data-name="Layer 1">
      <path d="M80.94,44.74c.11-.08.06-.32.07-.5.69-.24.32.63.32,1-.29.06-.64-.17-.47-.46Z">
      </path>
      <path d="M42.34,3.23c.32.58.85.08,1,0s.52-.1.82-.15c.69-.1.5-.78.6-1.26.05-.19,0-.58.18-.72a51.08,51.08,0,0,1,5.79.19c.23,0,.63,0,.83.07s.26.4.5.47,1.41-.07,1.42-.51c.35-.12,4.37-.06,5-.1l0,0,30.12.54.61,23.91v8l-.21,5.45c0,.39-.51.19-.69.16a1.43,1.43,0,0,0-.71.06c-.46.15-.86.42-.83,1a1.69,1.69,0,0,0,.18.75c.12.24.32.34.29.65s-.22.44-.25.72.12.49.24.8A1.05,1.05,0,0,1,87,44.61a4.12,4.12,0,0,1-.57.39c-.36.14-.38-.12-.41-.36a1.34,1.34,0,0,1-.68-.22s-.13,0-.19,0,0-.16,0-.19,0-.22-.26-.14-.35.34-.5.43-.31.24-.52.06-.07-.46-.33-.25,0,.35,0,.47c-.24.35-.77-.19-1-.27s-.6,0-.82-.31-.17-.9-.58-.67c-.2.12-.07.3-.14.47s-.3.48-.4.75,0,.34-.11.46c-.23.33-.57-.1-.75.29,0,.1,0,1-.4.55-.21-.23.13-.77-.17-1-.48,0-.06.72-.47.79-.14,0-.28-.21-.43-.25s-.41.08-.51-.06.23-.48,0-.76-.4-.17-.53.06,0,.55-.29.61-.41-.25-.54-.43a1.54,1.54,0,0,1-.35-1.4,1.75,1.75,0,0,0,0-.85c0-.1-.18-.13-.24-.23a2.7,2.7,0,0,1-.22-.68,2.14,2.14,0,0,1,.07-.43c0-.3,0-.59-.39-.5-.29.55.08,1.32.17,1.87a1.25,1.25,0,0,1-.08.7c-.15.56-.45.83,0,1.32.8.92-.59,2-1.5,1.82a1.15,1.15,0,0,1-.68-.33c-.15-.17-.17-.5-.51-.46s-.26.49-.54.39,0-.55-.1-.75c-.25-.37-1.24-.2-1.37.14-.19.51.06,1.21-.15,1.72H70c0-.26-.37-.49-.55-.6s-.67-.31-.93-.15-.1.26-.18.4-.17.18-.3.31a2.42,2.42,0,0,1-1.31.55c-.21.06-.43.09-.64.15a2,2,0,0,1-1.29,0c-.29-.21-.11-.48-.22-.75s-.38-.32-.57-.51a1.39,1.39,0,0,1-.2-1.47.92.92,0,0,0-.4-1.31,4.46,4.46,0,0,1-.93-.91c-.24-.26-.44-.26-.52.17a1.26,1.26,0,0,0,.34,1.1c.2.15.51.12.69.28s0,.13.14.32.09.19.25.22a4.9,4.9,0,0,1,0,1.21,2.94,2.94,0,0,1-.14.53c-.11.21-.41.23-.24.55.3,0,.77,0,.64.4s-.48.24-.75.33c-.06.39.67.23.92.25a.43.43,0,0,1,0,.16c-.21.06-.36.22-.57.29s-.46.06-.68.11-.49.27-.71.08-.06-.79-.6-.93-.81.16-1.2.1-.43-.18-.76-.11-.28.19-.49.41c-.42.44-1,.08-1.56.23a1.81,1.81,0,0,0-.63.37c-.13.11-.41.57-.65.39s.19-.73-.15-.75l-.5.46c-.22.22,0,.44-.15.61s-.68-.1-.79-.2c-.32-.27-.58-.89-1-1a13.91,13.91,0,0,0-2,.13c0-.06,0-.1,0-.16-.21,0-.59-.1-.64.16-.08,0-.2,0-.28,0,0,.31-.42.28-.65.28a1,1,0,0,1-.43,0c-.14-.09,0-.27-.21-.28-.05.16-.3.31-.4.46a1.53,1.53,0,0,1-.18.29c-.08.08-.21.05-.29.14s0,.23-.11.32a.69.69,0,0,1-.31.12.83.83,0,0,1-.69-.08c.06-.12.46-.55.17-.67s-.31.48-.67.27c0-.44-.33-.14-.48-.11-.42.07-.1-.11-.41-.25s-.4.32-.62.11.06-.51-.16-.63-.4.12-.6.17a3,3,0,0,0-.69.1c-.09.05-.14.17-.23.23s-.23.06-.34.11-.89,1-1,.42c0-.22.33-.65-.14-.64-.28,0-.33.36-.5.51s-.65.23-.55-.19c-.34,0-.37.1-.55.28a1.06,1.06,0,0,1-.6.36,2.13,2.13,0,0,1-1.43,0c-.81-.26.21-.58.07-1-.08-.27-.32-.28-.41-.53s.16-.52.16-.8a.59.59,0,0,0-.12-.35s-.13,0-.16,0,0-.16,0-.2c-.3-.31-.26-.17-.46.1s-.49.43-.64.71c-.28.53.16.31.48.54a1.39,1.39,0,0,1-.84,1c-.23.06-.48,0-.69.11s-.22.29-.38.48l-.4.43c-.19.19-.34.19-.54.32s-.25.32-.4.49-.47.33-.43.53-.06.08,0,.2c-.22.23-.15.51-.52.6s-.64-.24-1-.06c-.06.34-.62.16-.63-.15-.38-.2-.91.59-1.21.82a4.6,4.6,0,0,0-.82.83c-.16.2-.49.42-.59.64s.05.52-.06.77a1.23,1.23,0,0,1-.61.49c-.35.12-.61.11-.79-.22s0-.58-.32-.56c-.17.33-.58,1-1,.92-.06-.38.18-.56.24-.89.12-.63-.41-.27-.54-.64-.57-.13-.24.39-.28.71s-.33.65-.68.51c-.09.19-.31.5-.42.19s.21-.53.22-.75c-.39-.27-.91.62-1.15.81a5.89,5.89,0,0,0-.52.28c-.17.18-.14.27-.29.5s-1.49,1.85-1.74.59a2,2,0,0,0-.91.14c-.42.89-2.37,1-3.19.87-.07,0-.34-.52-.54-.15s.16.45.33.51c.14.77-.84.4-.93,1.19-.07,0-.19,0-.26,0s0-.18,0-.26-.15,0-.2,0c.06-.48-.42-.6-.51-.13-.05.21.28.58.27.84-.16,0-.39.06-.55,0,0,.32-.08.61-.35.77-.07-.07,0-.14-.15-.13a1.3,1.3,0,0,0-.38.62,8.09,8.09,0,0,1-1,.08c0-.43-.44-.31-.65-.06s.1.43-.07.64a.49.49,0,0,1-.88-.41c0-.05-.13-.13-.16-.16-1.35-.31-.28,2.42-1.47,2.07a1.59,1.59,0,0,0-.09-.69,1.24,1.24,0,0,0-.7-.22,6.38,6.38,0,0,1-.09,1c-.74.1-.93,1.12-1.45,1.15s-.26-.41-.2-.65a.8.8,0,0,0,0-.46,8.49,8.49,0,0,0-1.41.33c-.17.08-.33.06-.49.16s0,.5-.17.42c-.85-.43-1,.31-1.35,1l0-1.79L0,58.74l11.42-6.89L8.4,47,11.71,0,29.44.72,42.37.79V2.73Z">
      </path>
    </g>
  </g>
</svg>