<svg xmlns="http://www.w3.org/2000/svg" viewBox="0 0 28.02 65.78"><g id="Layer_2" data-name="Layer 2"><g id="Layer_1-2" data-name="Layer 1"><path d="M7.87,11.29H7.71c-.06.21.19,1,.57.86s-.35-.94-.54-.87Z"></path><path d="M27.56,65.65a.23.23,0,0,1-.29.12c-.07-.51.28-1.12.27-1.65a3.35,3.35,0,0,0-.38-1.55l-.38-.46c-.14.29.24.61-.16.8a8.79,8.79,0,0,1-1.31-.24.92.92,0,0,0,.65.63c.26.05.56-.24.77-.14s.18.46,0,.6-1-.06-1.32,0c-.17,0-.24.19-.38.24s-.36-.05-.5.09c.38,0,.4.37.84.29.05-.35.41-.31.66-.24s.4.27.57.56.61.9.16.78l0-.09c-.13-.14-.44-.74-.72-.57s.22.59.07.87c-.51,0-1.12-.1-1.51,0l-6.31.09L3.24,65.23.5,18.78,0,5.44l.72-.08A4.78,4.78,0,0,1,1.81,3.09c4.81-5.69,11.7-1.77,11.7-1.77-.45.35-.91.7-1.34,1.09S11.48,3.57,11,4.13a4.78,4.78,0,0,0-.52.59,2,2,0,0,0-.07.88c-.23.16-.43,0-.59.27s-.06.58-.17.82-.35.41-.53.65a7.31,7.31,0,0,1-.43.76,2,2,0,0,1-.63.54c-.26.11-.59.12-.8.38-.07.1-.09.28-.17.41a2.8,2.8,0,0,1-.28.31c-.38.43-.3.52-.4,1-.19,0-.33,0-.32.21.26,0,.32.19.42.37s.21.25.45.43.51.63.89.89c.2.14.38.08.46.33s-.12.47-.17.68a7.41,7.41,0,0,1-.53,2.24,3.14,3.14,0,0,0-.44,1.59c0,.38,0,.49.3.7s1,.39,1.06.93a1.13,1.13,0,0,1,.59.29c.16.2,0,.44.17.67s.49.21.41.52-.36.19-.53.28a.32.32,0,0,1,0,.09c.45.1.62,0,.84.43.09.19.14.19.16.42s-.18.3,0,.49c.36-.12.7.38.64.68-.39-.19-.07.29-.25.51.12.16.29.12.43.25s-.08.42.28.34c0-.25-.24-.61.09-.67a4.27,4.27,0,0,1,.58.33c.16.17.14.49.35.64s.4.06.58.3.35,1,.6,1.37a4.59,4.59,0,0,1,1.09,2.15c0,.41-.29.51-.09.9s.36.33.38.7c0,.53-.5,1.24-.71,1.73a1.57,1.57,0,0,0-.25.88,3.74,3.74,0,0,0,.22,1c.18.37.32.33.32.81a7.37,7.37,0,0,0,0,1.05A2.49,2.49,0,0,0,15,36.94a6.22,6.22,0,0,0,.76.43c.22.15.43.35.65.52a4.19,4.19,0,0,1,.61.65,1.55,1.55,0,0,1,.28.9c.11.57.67.83.87,1.31s-.11.77-.25,1.13a2,2,0,0,0,0,1.3c.38,1,1.7,1.37,2.22,2.27A6.67,6.67,0,0,0,21,47a6.89,6.89,0,0,1,1,1.28c.27.45.58.35,1,.64.22.15.37.41.67.54l.76.34c.45.2.28-.11.65-.17s.42.43.69,0c.15-.21-.07-.72.3-.73.62,0,.47,1.38.5,1.72s.08.68.1,1a7.14,7.14,0,0,0,.3,2.73,1,1,0,0,1,.16.76,6.12,6.12,0,0,0,.05,1.48c0,.11.14.31.12.42-.05.27-.56.48-.76.25.14-.11.34-.16.33-.37-.54-.1-.41-.6-.28-1,.21-.13.09-.38.07-.59a2.1,2.1,0,0,1,0-.5c0-.19,0-.8-.25-.87s-.35.19-.44.21-.43-.12-.63.11a.41.41,0,0,0-.33-.13c0,.5-.84-.28-1.06,0,.09.27.36.35.47.59s0,.33.08.47.16.12.22.24c.34.64,0,1.07-.44.35-.19.1-.26,0-.42-.08l-.41-.13c-.22-.1-.5-.44-.75-.38.1.24.06.51.3.7s.55.06.74.18.24.41.41.6.28.13.64.12c0,.33.44.06.72.08s.64.09.58.41a1.33,1.33,0,0,1-.53.06.76.76,0,0,0,0,.15c-.23.22-.53.09-.8.15s-.47.26-.75.24c-.13,0-.26-.19-.38-.13-.31.16,0,.58-.59.52a1,1,0,0,1,.08.36c-.2,0-.34.13-.5.14s-.35-.08-.55-.09c-.38,0-.72.12-1.14.12s-.64,0-.95,0a1,1,0,0,1-.43,0c-.13,0-.3-.16-.42-.16-.58,0-.17.29,0,.42s.41.14.75.08c.18,0,.37,0,.54,0s.24-.15.39-.16c.36,0,.52.22.89.21s.61-.33.8,0-.25.52-.55.51c-.08.29-.27,1.12-.05,1.34a1.21,1.21,0,0,0,.29-.6c.11-.31.2-.3.38-.5s.21-.43.43-.54a5.55,5.55,0,0,1,.75-.14c0-.43.72-.76,1.12-.69.22,0,.66.63.36.82.46-.29.28.17.33.39a1.42,1.42,0,0,0,.38.5c.12-.18,0-.34.09-.55a1.15,1.15,0,0,1,.17-.37c.18-.38.22-.44.62-.26.11-.39-.21-1.15-.07-1.38a.59.59,0,0,1,.62-.08c.13.12,0,.53.05.71A7.52,7.52,0,0,1,27.61,60a13.39,13.39,0,0,0,.28,2.19,6.91,6.91,0,0,1,0,.91c-.06.55.43,2.23-.2,2.55Z"></path></g></g></svg>