<svg xmlns="http://www.w3.org/2000/svg" xmlns:xlink="http://www.w3.org/1999/xlink" id="Layer_1" x="0px" y="0px" width="612px" height="550px" viewBox="331.5 203 612 550" xml:space="preserve"><path d="M905.066,599.001c0-2.621,0.159-3.103,0.802-2.889c0.428,0.214,0.802,0.802,0.802,1.337c0,0.856,0.428,1.016,2.674,1.016 h2.674v-3.689c0-2.781,0.215-3.743,0.803-4.011c0.589-0.214,0.803-1.123,0.803-3.262c0-2.247-0.161-2.941-0.803-2.941 c-0.695,0-0.803-1.07-0.803-6.632c0-5.026-0.16-6.738-0.749-7.22c-0.587-0.534-0.802-3.262-0.962-13.477 c-0.16-11.497-0.268-12.941-1.069-13.53c-0.855-0.642-0.963-1.925-0.963-12.835c0-10.267-0.106-12.192-0.803-12.405 c-0.588-0.269-0.802-1.177-0.802-3.477c0-2.353-0.214-3.263-0.802-3.477c-0.588-0.268-0.802-1.176-0.802-3.529 c0-2.728-0.161-3.262-1.069-3.477c-0.803-0.213-1.071-0.748-1.071-2.085c0-1.284-0.267-1.818-0.801-1.818 c-0.428,0-0.803-0.321-0.803-0.749s-0.428-0.909-0.909-1.017c-0.909-0.214-0.909-0.268,0-0.321c1.123-0.053,1.284-2.62,0.16-3.047 c-0.428-0.161-0.963-1.018-1.122-1.872c-0.214-0.856-0.643-1.712-0.964-1.926c-0.373-0.267-1.176-1.55-1.871-2.994 c-0.695-1.391-1.444-2.514-1.711-2.514c-0.268,0-0.589-0.749-0.803-1.604s-0.642-1.604-1.017-1.604c-0.373,0-1.069-1.017-1.604-2.3 c-2.031-4.866-3.101-6.791-3.85-6.791c-0.481,0-0.748-0.589-0.748-1.605c0-0.962-0.321-1.765-0.803-1.925 c-0.428-0.214-0.802-0.749-0.802-1.284c0-0.535-0.32-1.336-0.695-1.711s-0.855-1.123-1.069-1.658 c-0.161-0.481-0.696-0.909-1.177-0.909c-0.535,0-0.803-0.535-0.803-1.604c0-1.069-0.267-1.604-0.801-1.604 c-0.482,0-0.804-0.481-0.804-1.284c0-0.749-0.374-1.658-0.802-2.14c-0.428-0.427-0.803-1.016-0.803-1.336s-0.481-0.588-1.068-0.588 c-0.855,0-1.07-0.374-1.07-1.872c0-1.283-0.268-1.872-0.802-1.872c-0.535,0-0.803-0.534-0.803-1.551c0-0.855-0.32-1.657-0.802-1.872 c-0.481-0.16-0.803-0.962-0.803-1.925c0-0.909-0.48-2.086-1.069-2.674c-0.587-0.588-1.069-1.444-1.069-1.872 s-0.375-0.803-0.803-0.803s-0.802-0.375-0.802-0.802s-0.375-0.802-0.802-0.802c-0.428,0-0.803-0.481-0.803-1.069 s-0.481-1.551-1.07-2.14c-0.587-0.588-1.069-1.283-1.069-1.551s-0.374-0.588-0.802-0.802c-0.481-0.161-0.802-0.963-0.802-1.926 c0-1.069-0.268-1.604-0.802-1.604c-0.535,0-0.803-0.535-0.803-1.658c0-1.176-0.268-1.711-1.069-1.926 c-0.589-0.16-1.069-0.588-1.069-0.909c0-0.749-1.177-2.299-3.583-4.92c-0.963-1.016-1.766-2.085-1.766-2.354 c0-0.321-0.374-0.535-0.802-0.535s-0.803-0.428-0.803-1.016c0-0.535-0.374-1.283-0.802-1.657c-0.428-0.375-0.802-1.123-0.802-1.658 c0-0.642-0.375-1.016-1.069-1.016c-0.91,0-1.069-0.375-1.069-2.673c0-2.033-0.215-2.674-0.803-2.674 c-0.642,0-0.803-0.695-0.803-3.155c0-2.139-0.267-3.369-0.802-3.797c-0.588-0.481-0.803-1.818-0.803-5.134 c0-3.636,0.161-4.492,0.803-4.492c0.535,0,0.802-0.535,0.802-1.818c0-1.123,0.32-1.925,0.803-2.139 c0.427-0.161,0.803-0.643,0.803-1.124c0-0.481-0.376-0.962-0.803-1.123c-0.428-0.214-0.803-0.802-0.803-1.337 s-0.374-1.017-0.802-1.017s-0.803-0.481-0.803-1.016c0-1.604-0.588-2.727-1.39-2.727c-0.429,0-0.749-0.374-0.749-0.802 c0-0.429-0.375-0.803-0.803-0.803s-0.802-0.481-0.802-1.069s-0.481-1.497-1.069-1.979c-0.588-0.535-1.069-1.23-1.069-1.604 c0-0.374-0.375-0.695-0.803-0.695s-0.802-0.375-0.802-0.802s-0.375-0.802-0.803-0.802s-0.802-0.267-0.802-0.588 c0-0.749-2.515-3.155-3.263-3.155c-0.267,0-0.48-0.375-0.48-0.802s-0.375-0.802-0.803-0.802s-0.802-0.481-0.802-1.07 s-0.321-1.069-0.749-1.069c-0.429,0-0.909-0.749-1.123-1.604c-0.214-0.909-0.695-1.604-1.123-1.604 c-0.429,0-0.749-0.375-0.749-0.803c0-0.481-0.374-0.962-0.802-1.123c-0.428-0.213-0.802-0.641-0.802-1.069 c0-0.428-0.215-0.749-0.482-0.749c-0.748,0-3.261-2.407-3.261-3.155c0-0.321-0.376-0.588-0.804-0.588 c-0.427,0-0.802-0.375-0.802-0.802s-0.321-0.803-0.749-0.803c-0.373,0-0.855-0.481-1.016-1.069s-0.642-1.07-1.123-1.07 c-0.588,0-0.855-0.481-0.855-1.604c0-1.07-0.267-1.604-0.803-1.604c-0.428,0-0.802-0.375-0.802-0.802s-0.375-0.802-0.803-0.802 s-0.801-0.481-0.801-1.07c0-0.588-0.482-1.551-1.07-2.14c-0.588-0.588-1.07-1.336-1.07-1.604c0-0.321-0.374-0.535-0.802-0.535 s-0.802-0.481-0.802-1.069c0-0.589-0.374-1.07-0.802-1.07s-0.803-0.321-0.803-0.695s-0.48-0.962-1.069-1.336 c-0.589-0.375-1.069-1.123-1.069-1.712c0-0.642-0.321-1.23-0.749-1.391c-0.428-0.16-0.909-0.855-1.069-1.604 c-0.214-0.695-0.589-1.284-0.855-1.284c-0.32,0-0.534-0.481-0.534-1.123s-0.429-1.229-1.071-1.39 c-0.749-0.214-1.069-0.749-1.069-1.819c0-1.016-0.267-1.55-0.802-1.55c-0.534,0-0.802-0.535-0.802-1.604 c0-0.963-0.321-1.766-0.804-1.926c-0.428-0.214-0.801-0.642-0.801-1.016c0-0.428-0.482-0.909-1.069-1.069 c-0.696-0.214-1.07-0.802-1.07-1.658c0-0.749-0.374-1.444-0.802-1.605c-0.428-0.214-0.802-0.695-0.802-1.069 c0-0.428-0.375-0.909-0.803-1.069c-0.428-0.214-0.803-0.642-0.803-1.07c0-0.428-0.48-0.749-1.069-0.749 c-0.855,0-1.069-0.375-1.069-1.604c0-1.069-0.268-1.604-0.802-1.604c-0.535,0-0.803-0.535-0.803-1.818 c0-1.016-0.32-2.192-0.749-2.567c-0.374-0.428-0.909-1.284-1.069-1.925c-0.213-0.642-0.748-1.177-1.176-1.177 s-0.75-0.535-0.75-1.337c0-0.748-0.373-1.498-0.801-1.658c-0.428-0.214-0.803-0.749-0.803-1.284c0-0.535-0.374-1.229-0.802-1.604 s-0.803-1.444-0.803-2.353c0-2.46-0.588-4.064-1.391-4.064c-0.428,0-0.748-0.375-0.748-0.802c0-0.481-0.375-0.962-0.803-1.123 c-0.481-0.214-0.802-1.016-0.802-2.086c0-1.016-0.375-2.139-0.803-2.62c-0.428-0.428-0.802-1.123-0.802-1.551 c0-1.39-0.642-2.513-1.391-2.513c-0.535,0-0.749-0.695-0.749-2.407c0-1.658-0.267-2.513-0.802-2.727 c-0.534-0.214-0.803-1.069-0.803-2.567c0-1.818-0.32-2.459-1.872-3.904c-1.176-1.123-1.871-2.246-1.871-3.102 c0-0.855-0.32-1.337-0.802-1.337c-0.535,0-0.802-0.588-0.802-1.872c0-1.284-0.269-1.872-0.803-1.872 c-0.642,0-0.803-0.803-0.803-4.225c0-3.797-0.107-4.278-1.069-4.6c-0.855-0.267-1.069-0.803-1.069-2.728 c0-1.337-0.267-2.354-0.588-2.354c-1.176,0-2.567-2.406-2.62-4.545c0-2.941-0.535-4.545-1.391-4.545 c-0.589,0-0.749-1.017-0.749-4.546v-4.545h-3.637c-2.139,0-3.904-0.268-4.277-0.643c-0.535-0.535-0.91-0.535-1.713,0 c-1.604,0.963-10.375,0.856-11.23-0.16c-0.48-0.535-1.711-0.802-4.063-0.802c-1.925,0-3.423-0.214-3.423-0.535 s-2.406-0.535-6.15-0.535h-6.149v1.337c0,1.176-0.215,1.337-1.872,1.337c-1.765,0-1.871,0.107-1.871,1.872 c0,1.283-0.268,1.871-0.803,1.871s-0.803,0.536-0.803,1.819c0,0.963,0.375,2.085,0.803,2.46c0.588,0.481,0.803,1.711,0.803,4.332 c0,2.941,0.16,3.69,0.802,3.69c0.428,0,0.803,0.375,0.803,0.802s0.48,0.802,1.069,0.802c0.962,0,1.069,0.374,1.069,3.797 c0,2.995-0.215,4.011-0.909,4.492c-0.643,0.481-0.909,1.444-0.909,3.369v2.674l-1.925,0.214c-3.583,0.321-3.744,0.16-3.744-3.637 c0-2.674-0.16-3.423-0.802-3.423c-0.428,0-0.803-0.375-0.803-0.802c0-0.481-0.374-0.962-0.802-1.123 c-0.428-0.214-0.802-0.962-0.802-1.765c0-1.765-1.711-2.995-3.209-2.192c-0.588,0.321-5.027,0.535-10.375,0.535 c-8.021,0-9.412,0.107-9.412,0.802c0,0.695-1.498,0.802-10.107,0.802c-8.29,0-10.268,0.161-10.964,0.803 c-0.641,0.642-2.406,0.802-8.77,0.802c-8.878,0-11.338,0.321-11.338,1.39c0,0.588-2.031,0.749-10.91,0.749 c-9.038,0-11.016,0.161-11.551,0.802s-2.46,0.802-11.017,0.802c-8.343,0-10.428,0.161-10.749,0.75 c-0.321,0.588-2.674,0.802-11.551,0.962c-9.894,0.16-11.23,0.268-11.819,1.07c-0.641,0.855-1.872,0.962-12.567,0.962 c-10.054,0-11.926,0.107-12.139,0.802c-0.481,1.177-23.745,1.23-23.745,0.054c0-0.428-0.375-0.856-0.802-1.07 c-0.588-0.214-0.802-1.123-0.802-3.208c0-2.406-0.214-3.048-1.069-3.529c-0.695-0.375-1.07-1.123-1.07-2.14 c0-1.069-0.267-1.604-0.802-1.604c-0.535,0-0.802-0.535-0.802-1.497c0-1.444-1.979-3.851-3.156-3.851 c-0.321,0-0.588-0.481-0.588-1.124c0-1.069-0.214-1.123-4.599-0.962c-3.583,0.16-4.707,0.428-5.241,1.124 c-0.588,0.802-1.604,0.962-6.685,0.962c-4.813,0-6.043,0.16-6.257,0.802c-0.267,0.642-1.498,0.802-6.311,0.802 c-4.439,0-6.257,0.214-7.059,0.802c-0.695,0.535-2.406,0.749-5.615,0.802c-5.616,0-7.969,0.428-7.969,1.391 c0,0.588-1.39,0.749-6.952,0.749c-5.83,0-6.952,0.107-6.952,0.802c0,0.695-1.07,0.802-6.631,0.802c-4.974,0-6.846,0.214-7.38,0.749 s-2.673,0.803-7.326,0.91c-5.509,0.161-6.685,0.375-7.22,1.176c-0.588,0.802-1.658,0.909-7.22,0.909 c-5.294,0-6.578,0.161-6.792,0.802c-0.268,0.642-1.604,0.802-7.22,0.802c-5.294,0-6.952,0.161-7.273,0.75s-2.139,0.802-7.434,0.962 c-5.775,0.107-7.22,0.321-8.075,1.07c-0.909,0.802-2.139,0.962-7.861,0.962c-5.509,0-6.846,0.161-7.06,0.802 c-0.268,0.642-1.604,0.803-7.434,0.803c-5.615,0-7.326,0.16-7.968,0.802c-0.536,0.588-1.926,0.802-4.814,0.802h-4.063v17.648 l1.336,0.321c0.749,0.16,1.337,0.642,1.337,1.07c0,0.428,0.375,0.748,0.802,0.748c0.427,0,0.802,0.375,0.802,0.803 c0,0.428,0.481,0.802,1.07,0.802c0.855,0,1.069,0.375,1.069,1.604c0,1.391,0.267,1.658,1.55,1.926 c0.91,0.214,1.712,0.642,1.872,1.069c0.161,0.428,1.016,0.749,1.925,0.749c1.069,0,1.605,0.268,1.605,0.802 c0,0.481,0.375,0.962,0.802,1.123c1.07,0.428,1.07,3.743,0,4.171c-1.07,0.375-1.124,6.846-0.054,7.755 c0.428,0.374,0.91,1.23,1.07,1.925c0.161,0.695,0.749,1.551,1.283,1.818c1.177,0.642,1.016,4.332-0.214,4.332 c-0.481,0-0.749,0.588-0.749,1.604c0,1.23-0.214,1.604-1.069,1.604c-0.588,0-1.069,0.321-1.069,0.749 c0,0.428-0.375,0.856-0.803,1.07c-0.428,0.161-0.802,0.642-0.802,1.069c0,0.375-0.481,0.855-1.069,1.016 c-1.176,0.321-1.444,2.407-0.535,4.171c0.802,1.444,4.278,1.444,4.653-0.054c0.214-0.855,0.749-1.069,2.62-1.069 c1.604,0,2.46-0.268,2.674-0.802c0.214-0.535,1.07-0.802,2.354-0.802c1.123,0,2.299-0.375,2.673-0.803s1.069-0.802,1.551-0.802 c0.482,0,1.444-0.374,2.086-0.855c0.642-0.428,1.176-0.535,1.176-0.267c0,0.321,0.588,0.588,1.337,0.588 c0.856,0,1.337-0.321,1.337-0.802c0-0.642,0.749-0.802,3.476-0.802c2.62,0,3.583-0.214,3.796-0.802 c0.268-0.589,1.177-0.803,3.477-0.803c2.353,0,3.262-0.214,3.476-0.802c0.214-0.535,1.069-0.802,2.566-0.802 c2.995,0,4.6-0.535,4.6-1.39c0-0.588,0.856-0.749,3.476-0.749c2.621,0,3.583-0.214,3.797-0.803c0.268-0.588,1.123-0.802,3.156-0.802 c1.818,0,3.155-0.268,3.69-0.802c0.428-0.428,1.711-0.802,2.834-0.802c2.834,0,4.438-0.535,4.438-1.39 c0-0.589,1.605-0.749,8.29-0.749s8.289,0.16,8.289,0.749c0,1.016,1.711,1.39,6.578,1.39c2.995,0,4.439,0.214,4.974,0.802 c0.588,0.535,1.925,0.802,4.278,0.802c2.674,0,3.423,0.16,3.423,0.802c0,0.535,0.535,0.803,1.604,0.803 c0.91,0,2.086,0.481,2.674,1.069c0.642,0.642,1.764,1.069,2.888,1.069c1.123,0,1.925,0.321,2.139,0.802 c0.16,0.481,0.962,0.802,1.872,0.802c0.855,0,1.657,0.321,1.872,0.803c0.16,0.428,0.909,0.802,1.604,0.802 c0.803,0,1.605,0.428,1.925,1.069c0.321,0.588,1.123,1.069,1.818,1.069c0.695,0,1.39,0.375,1.604,0.802 c0.214,0.589,1.124,0.803,3.53,0.803c2.514,0,3.208,0.16,3.208,0.802c0,0.428,0.428,0.802,1.017,0.802 c0.534,0,1.123,0.481,1.283,1.069c0.161,0.695,0.75,1.07,1.604,1.07c1.017,0,1.497,0.374,1.925,1.604 c0.268,0.855,0.802,1.604,1.07,1.604c0.321,0,0.588,0.374,0.588,0.802c0,0.481,0.695,0.963,1.658,1.177 c0.909,0.16,1.765,0.642,1.925,1.016c0.16,0.481,1.123,0.749,2.62,0.749c1.604,0,2.46,0.268,2.674,0.802 c0.214,0.481,1.069,0.855,2.032,0.855c0.909,0.054,1.229,0.161,0.748,0.321c-0.855,0.214-0.962,0.909-0.962,5.027 c0,3.743,0.16,4.866,0.802,5.081c0.535,0.214,0.802,1.069,0.802,2.673c0,1.552,0.267,2.514,0.749,2.674 c0.428,0.161,0.855,0.749,1.016,1.337c0.161,0.535,0.642,1.016,1.07,1.016c0.427,0,0.909,0.375,1.123,0.802 c0.16,0.535,1.016,0.803,2.46,0.803c1.444,0,2.299-0.268,2.46-0.803c0.267-0.642,1.284-0.802,4.545-0.802 c3.423,0,4.225,0.16,4.225,0.802c0,0.481,0.481,0.803,1.284,0.803c0.695,0,1.551,0.375,1.925,0.802 c0.535,0.642,2.085,0.802,7.54,0.802c5.776,0,6.899-0.107,6.899-0.802c0-0.428,0.481-0.802,1.069-0.802s1.07-0.375,1.07-0.803 c0-0.427,0.375-0.802,0.802-0.802s0.802-0.481,0.802-1.07c0-0.695,0.375-1.069,1.017-1.069c0.588,0,1.39-0.375,1.872-0.802 c0.428-0.428,1.176-0.802,1.604-0.802c0.481,0,0.855-0.321,0.855-0.749c0-0.375,0.481-0.855,1.069-1.016 c0.588-0.16,1.07-0.642,1.07-1.123c0-0.481,0.374-0.855,0.802-0.855s0.802-0.321,0.802-0.749c0-0.481,0.642-0.856,1.497-0.963 c1.123-0.106,1.551-0.535,1.979-1.924c0.375-1.391,0.749-1.712,1.979-1.712c0.962,0,1.497-0.268,1.497-0.749 c0-0.481,0.643-0.856,1.765-0.963l1.711-0.16l0.107-3.476c0.053-1.925,0.107-3.904,0.107-4.439c0.053-0.481,0.428-0.909,0.855-0.909 c0.428,0,0.802-0.375,0.802-0.802c0-0.588,0.642-0.802,2.674-0.802c1.498,0,2.674-0.214,2.674-0.481 c0-0.268,0.481-0.375,1.069-0.214c0.588,0.16,1.069,0.749,1.069,1.283c0,0.749,0.375,1.016,1.605,1.016 c1.069,0,1.604-0.268,1.604-0.802c0-0.428,0.481-0.802,1.069-0.802s1.069-0.375,1.069-0.803c0-0.48,0.375-0.962,0.803-1.123 c0.535-0.214,0.802-1.07,0.802-2.406c0-1.391-0.268-2.247-0.802-2.407c-0.482-0.214-0.803-1.016-0.803-1.925 c0-1.123-0.32-1.658-1.069-1.872c-1.23-0.321-1.444-1.765-0.32-1.765c0.427,0,0.962-0.481,1.123-1.069 c0.214-0.749,0.803-1.069,1.925-1.069c1.016,0,1.551-0.268,1.551-0.803c0-0.481,0.481-0.802,1.337-0.802 c0.749,0,1.337,0.214,1.337,0.535c0,0.267,0.588,0.535,1.336,0.535c0.749,0,1.337-0.268,1.337-0.535 c0-0.321,0.856-0.535,1.872-0.535c1.284,0,1.872-0.268,1.872-0.802c0-0.588,0.642-0.802,2.567-0.855 c3.476-0.107,4.011,0,4.706,0.909c0.321,0.428,1.23,0.749,2.033,0.749c0.855,0,1.39,0.267,1.39,0.802s0.589,0.803,1.872,0.803 c1.23,0,1.872,0.268,1.872,0.749c0,0.855,1.604,1.39,4.599,1.39c1.498,0,2.354,0.268,2.567,0.802 c0.161,0.481,1.016,0.802,2.192,0.802c1.017,0,1.872,0.214,1.872,0.481c0,0.268,0.481,0.696,1.069,0.856 c1.229,0.375,3.744,2.728,3.744,3.476c0,0.321,0.214,0.535,0.535,0.535c1.069,0,4.813,4.385,4.813,5.669 c0,0.802,0.321,1.283,0.802,1.283c0.428,0,0.802,0.481,0.802,1.069c0,0.588,0.32,1.069,0.749,1.069c0.428,0,0.855,0.375,1.069,0.803 c0.16,0.427,0.749,0.802,1.283,0.802c0.588,0,1.337,0.375,1.711,0.802c0.375,0.428,1.444,0.802,2.407,0.802 c1.283,0,1.818,0.267,2.032,1.069c0.16,0.749,0.75,1.07,1.658,1.07c1.337,0,1.39,0.107,1.39,3.262c0,2.781,0.16,3.315,1.07,3.53 c0.802,0.213,1.069,0.748,1.069,2.085c0,1.658,0.161,1.818,1.604,1.818c0.964,0,1.766,0.32,1.927,0.802 c0.214,0.428,0.642,0.803,1.069,0.803s0.748,0.374,0.748,0.802s0.428,0.802,0.963,0.802c0.589,0,1.444,0.481,1.979,1.069 c0.535,0.588,1.657,1.07,2.514,1.07c1.123,0,2.14,0.588,3.423,1.872c1.016,1.069,1.818,2.085,1.818,2.353 c0,0.268,0.374,0.588,0.802,0.802c0.481,0.16,0.802,0.963,0.802,1.926c0,1.069,0.269,1.604,0.803,1.604 c0.428,0,1.283,0.481,1.872,1.07c0.588,0.589,1.765,1.07,2.674,1.07c1.443,0,1.604,0.16,1.604,1.604 c0,1.229,0.214,1.604,1.069,1.604c0.962,0,1.069,0.375,1.069,3.423c0,3.743,0.268,4.064,3.477,4.064c1.872,0,3.476-1.123,3.476-2.46 c0-0.428,0.482-1.23,1.069-1.818c0.91-0.909,1.766-1.07,5.349-1.07h4.278v5.348h1.871c1.283,0,1.872,0.267,1.872,0.802 c0,0.428,0.374,0.802,0.802,0.802c0.589,0,0.803,0.642,0.803,2.674c0,1.979,0.214,2.674,0.749,2.674 c0.428,0,0.908,0.695,1.122,1.551c0.161,0.855,0.695,1.711,1.123,1.872c1.124,0.428,1.069,9.145-0.053,9.626 c-0.428,0.161-0.803,0.749-0.803,1.337c0,1.016,0.962,1.658,2.566,1.658c0.749,0,0.91,0.535,0.91,2.514 c0,2.513,0.053,2.566,1.765,2.727c1.657,0.161,1.711,0.214,1.711,2.834c0,1.979,0.215,2.62,0.802,2.62 c0.855,0,0.963,0.535,0.803,4.171c-0.054,1.604,0.16,2.354,0.749,2.567c1.176,0.481,1.229,6.097,0.054,6.097 c-0.643,0-0.803,0.749-0.803,3.69c0,2.621-0.214,3.851-0.803,4.332c-0.587,0.481-0.802,1.818-0.802,5.134 c0,4.118-0.106,4.492-1.069,4.492c-0.962,0-1.069,0.375-1.069,3.423c0,3.904,0.32,5.134,1.391,5.134 c0.588,0,0.748,1.177,0.748,5.615c0,4.652-0.16,5.615-0.802,5.615c-0.481,0-0.963,0.696-1.177,1.658 c-0.16,0.909-0.642,1.765-1.017,1.925c-1.016,0.374-0.963,4.118,0,5.936c0.428,0.803,0.909,2.086,1.124,2.888 c0.16,0.855,0.642,1.498,1.069,1.498c0.427,0,0.802,0.375,0.802,0.802s0.374,0.802,0.802,0.802s0.803,0.375,0.803,0.802 c0,0.481,0.428,1.016,0.91,1.176c1.122,0.428,2.833,2.139,2.833,2.834c0,0.268,0.375,0.535,0.803,0.535 c0.535,0,0.803,0.588,0.803,1.872c0,1.284,0.267,1.872,0.801,1.872c0.376,0,0.963,0.375,1.231,0.855 c0.32,0.588,1.068,0.749,2.566,0.642c1.817-0.16,2.086-0.321,2.245-1.657c0.161-1.23,0.428-1.444,1.818-1.444 c1.123,0,1.658-0.321,1.872-1.07c0.161-0.588,0.643-1.069,1.017-1.069c0.588,0,0.749-1.177,0.749-5.348v-5.348l4.705,0.053 c2.567,0.054,4.225,0.161,3.744,0.321c-0.535,0.107-0.963,0.481-0.963,0.749s-0.481,0.963-1.069,1.551s-1.07,1.551-1.07,2.14 c0,0.588-0.374,1.069-0.802,1.069c-0.534,0-0.803,0.535-0.803,1.604c0,1.07-0.267,1.605-0.801,1.605 c-0.589,0-0.803,0.588-0.803,1.872c0,1.123-0.32,2.032-0.749,2.192c-0.428,0.161-0.909,0.909-1.123,1.658 c-0.16,0.748-0.694,1.711-1.069,2.139c-0.428,0.428-0.802,1.23-0.802,1.818c0,1.818-1.926,3.155-4.546,3.155h-2.406v3.209 c0,2.406,0.214,3.315,0.802,3.528c0.428,0.216,0.802,0.644,0.802,1.071s0.375,0.748,0.803,0.748s0.802,0.374,0.802,0.802 s0.375,0.803,0.855,0.803c0.428,0,1.07,0.694,1.337,1.604c0.321,0.855,0.803,1.604,1.017,1.604c0.268,0,0.642,0.482,0.802,1.069 c0.161,0.589,0.695,1.07,1.123,1.07c0.429,0,1.231,0.481,1.818,1.069c0.589,0.588,1.658,1.07,2.354,1.07 c1.069,0,1.283,0.32,1.551,2.246c0.161,1.229,0.695,2.514,1.123,2.887c0.481,0.321,0.855,0.856,0.855,1.23 c0,0.321,0.267,0.588,0.535,0.588c0.802,0,2.674,2.033,2.674,2.941c0,0.428,0.481,1.284,1.069,1.872 c0.588,0.589,1.069,1.283,1.069,1.552c0,0.267,0.375,0.587,0.803,0.802c0.48,0.16,0.802,0.962,0.802,1.924 c0,1.071,0.268,1.605,0.803,1.605c0.427,0,0.802,0.321,0.802,0.749s0.481,0.962,1.07,1.122c0.748,0.215,1.068,0.803,1.068,1.926 c0,1.016,0.268,1.551,0.803,1.551c0.427,0,0.802,0.375,0.802,0.803s0.375,0.802,0.803,0.802s0.802,0.481,0.802,1.07 c0,0.587,0.482,1.55,1.069,2.139c0.589,0.587,1.069,1.283,1.069,1.55c0,0.269,0.643,0.589,1.444,0.696 c1.123,0.107,1.551,0.534,1.872,1.872c0.374,1.497,0.694,1.764,2.032,1.764c1.552,0,1.604,0.054,1.604,2.567 c0,1.391,0.321,2.995,0.749,3.584c0.374,0.587,0.909,1.871,1.123,2.78c0.16,1.015,0.694,1.765,1.123,1.765 c0.481,0,0.749,0.588,0.749,1.871c0,1.177,0.268,1.872,0.695,1.872c0.375,0,0.962,0.695,1.283,1.604 c0.534,1.444,0.855,1.604,2.782,1.604c2.139,0,2.19-0.052,2.19-1.871c0-2.46,1.392-1.979,1.713,0.588 c0.214,1.766,0.159,1.818-1.552,1.818h-1.765v3.477c0,2.675,0.161,3.476,0.749,3.476c0.428,0,0.854,0.642,0.962,1.444 c0.107,1.016,0.589,1.55,1.765,1.925c0.91,0.321,1.818,0.856,2.032,1.23c0.589,1.069,8.396,1.069,8.396,0 c0-0.374,0.803-0.909,1.765-1.176c1.338-0.43,1.765-0.856,1.872-1.979c0.214-1.604,1.925-2.031,2.46-0.642 c0.214,0.588,1.123,0.802,3.53,0.802h3.208v4.011c0,3.103,0.214,4.118,0.803,4.332c0.534,0.214,0.802,1.069,0.802,2.621 c0,1.39,0.32,2.513,0.803,2.94c0.428,0.375,0.801,1.444,0.801,2.407c0,2.299,0.482,3.477,1.392,3.477 c0.534,0,0.749,0.694,0.749,2.405c0,2.247,0.106,2.461,1.55,2.728c1.23,0.268,1.658,0.696,1.926,1.872 c0.214,0.855,0.642,1.551,1.017,1.551c1.604,0,2.46,1.926,2.46,5.509c0,1.979,0.214,3.582,0.48,3.582 c0.749,0,3.263,2.407,3.263,3.155c0,0.321,0.32,0.589,0.749,0.589c0.428,0,0.855,0.374,1.069,0.802c0.374,1.017,2.78,1.017,3.209,0 c0.16-0.428,0.642-0.802,1.122-0.802c0.589,0,0.803-0.534,0.803-1.872c0-2.086,1.283-2.674,1.764-0.802 c0.161,0.588,0.643,1.07,1.124,1.07s0.855,0.373,0.855,0.801c0,0.535,0.589,0.803,1.872,0.803c1.016,0,1.872,0.214,1.872,0.481 c0,1.016,1.871,1.177,2.513,0.268c0.642-0.856,0.695-0.91,0.695-0.054c0,0.695,0.481,0.909,1.872,0.909 c1.283,0,1.871,0.268,1.871,0.803c0,0.428,0.482,0.802,1.017,0.802c1.604,0,2.728,0.588,2.728,1.39c0,0.428,0.374,0.749,0.802,0.749 s0.803,0.374,0.803,0.802s0.374,0.804,0.801,0.804c0.429,0,0.804,0.319,0.804,0.748c0,0.802,1.123,1.391,2.728,1.391 c0.534,0,1.015,0.373,1.015,0.801s0.375,0.804,0.803,0.804c0.481,0,0.803,0.481,0.803,1.337c0,0.749,0.32,1.497,0.749,1.657 c0.428,0.16,0.908,1.123,1.069,2.14c0.214,1.123,0.694,1.818,1.176,1.818c1.338,0,2.354,1.39,2.354,3.208 c0,1.069,0.32,1.711,0.962,1.925c1.927,0.589,2.514,1.178,2.675,2.568c0.107,0.748,0.535,1.39,0.963,1.39 c0.48,0,0.748,0.588,0.748,1.604c0,0.962,0.321,1.765,0.802,1.925c0.428,0.214,0.803,0.642,0.803,1.017 c0,0.374-0.375,0.802-0.803,1.016c-1.336,0.481-1.122,9.305,0.32,12.087c0.644,1.176,1.444,2.139,1.872,2.139 c0.429,0,0.749,0.375,0.749,0.803s0.375,0.801,0.803,0.801s0.802,0.376,0.802,0.803c0,0.642,0.963,0.802,5.348,0.802 c4.387,0,5.349-0.16,5.349-0.802c0-0.588,0.643-0.803,2.62-0.803c1.657,0,2.941-0.32,3.476-0.801 c0.428-0.428,1.177-0.803,1.658-0.803s1.017-0.482,1.177-1.069c0.268-0.963,0.748-1.069,5.562-1.069c4.332,0,5.294,0.16,5.294,0.801 c0,0.428,0.321,0.803,0.695,0.803c0.375,0,1.069,0.481,1.604,1.069c0.696,0.803,1.552,1.069,3.584,1.069h2.675v-3.422 c0-2.941,0.159-3.423,1.069-3.69c0.587-0.16,1.069-0.641,1.069-1.123c0-0.588,0.481-0.855,1.604-0.855 c1.07,0,1.604-0.267,1.604-0.802c0-0.428,0.482-0.803,1.07-0.803s1.07,0.321,1.07,0.749c0,0.374-0.482,0.855-1.07,1.017 c-0.909,0.214-1.07,0.749-1.07,3.797c0,2.78-0.159,3.529-0.801,3.529c-0.428,0-0.804,0.375-0.804,0.803s-0.373,0.801-0.802,0.801 c-0.535,0-0.802,0.589-0.802,1.872c0,1.177-0.269,1.872-0.695,1.872c-0.963,0-3.048,2.941-3.048,4.278 c0,0.855-0.32,1.069-1.819,1.069c-2.139,0-3.529,1.497-3.529,3.852c0,0.962-0.268,1.496-0.802,1.496 c-0.428,0-0.803,0.375-0.803,0.803c0,0.534-0.534,0.802-1.817,0.802c-2.14,0-3.53,0.428-3.53,1.123c0,0.268-0.48,0.963-1.069,1.551 c-0.587,0.589-1.069,1.765-1.069,2.675v1.657l4.438-0.16l4.385-0.161l0.161-1.765c0.16-1.497,0.373-1.711,1.711-1.711 c0.803,0,1.604-0.374,1.818-0.802c0.161-0.428,0.642-0.803,1.123-0.803c0.535,0,0.803-0.534,0.803-1.604 c0-1.283,0.214-1.604,1.229-1.604c1.391,0,4.117-2.674,4.117-4.117c0-0.695,0.589-1.177,1.766-1.497 c1.337-0.428,1.765-0.855,1.872-2.033c0.107-0.802,0.48-1.443,0.962-1.443c0.429,0,0.749-0.375,0.749-0.855 c0-0.428,0.374-1.177,0.802-1.605c0.428-0.48,0.803-1.283,0.803-1.871c0-0.534,0.32-1.017,0.748-1.017 c0.804,0,1.391-1.122,1.391-2.727c0-0.535,0.375-1.016,0.803-1.016s0.802-0.375,0.802-0.803s0.375-0.802,0.803-0.802 s0.801-0.482,0.801-1.07s0.322-1.069,0.75-1.069c0.908,0,1.391-1.657,1.391-4.706c0-1.658,0.214-2.245,0.802-2.245 c0.534,0,0.802-0.589,0.802-1.872c0-1.284,0.268-1.872,0.802-1.872c0.589,0,0.803-0.643,0.803-2.407c0-1.818,0.268-2.513,1.069-2.94 c1.177-0.642,1.497-4.064,0.535-5.937c-0.481-0.856-0.374-1.016,0.803-1.016c1.176,0,1.336-0.215,1.336-1.872 c0-1.284,0.268-1.872,0.803-1.872c0.642,0,0.803-0.749,0.803-3.476c0-2.621-0.161-3.476-0.749-3.476 c-0.429,0-0.856-0.376-1.07-0.804c-0.321-0.909-2.994-1.123-2.994-0.214c0,0.321-0.481,1.177-1.069,1.926 c-0.856,1.123-1.07,2.192-1.07,5.669v4.277l-1.123-1.015c-0.642-0.589-0.963-1.391-0.801-1.979c0.106-0.589-0.215-1.337-0.804-1.872 c-0.855-0.749-1.017-1.604-1.017-5.829c0-4.277,0.161-5.133,1.071-6.043C904.853,602.423,905.066,601.514,905.066,599.001z  M868.166,672.801c0,0.267-0.855,0.534-1.926,0.534c-1.443,0-1.978,0.268-2.192,1.07c-0.16,0.587-0.642,1.069-1.016,1.069 c-0.428,0-0.749,0.374-0.749,0.803c0,0.534-0.535,0.801-1.818,0.801c-1.016,0-2.192,0.376-2.674,0.804 c-0.429,0.427-1.07,0.801-1.443,0.801c-0.321,0-1.177,0.589-1.872,1.39c-1.284,1.338-1.604,3.049-0.963,4.707 c0.428,1.124,2.139,1.07,2.835-0.106c0.48-0.803,0.535-0.803,0.587,0.267c0,1.017,0.321,1.23,1.605,1.23 c1.229,0,1.604-0.214,1.604-1.069c0-0.589,0.374-1.069,0.801-1.069c0.482,0,0.963-0.375,1.124-0.803 c0.214-0.48,1.017-0.802,1.872-0.802c0.963,0,1.55-0.268,1.55-0.749c0-0.428,0.749-0.909,1.658-1.123s1.766-0.695,1.925-1.123 c0.161-0.428,0.589-0.749,1.017-0.749c0.802,0,1.069-3.85,0.429-5.562C870.145,672.212,868.166,671.945,868.166,672.801z  M847.522,684.352c-1.176-0.268-2.192-0.161-2.673,0.267c-0.588,0.482-0.749,0.429-0.749-0.213c0-1.123-1.604-1.979-3.636-1.979 c-0.857,0-1.872-0.375-2.247-0.803c-0.428-0.534-1.657-0.802-3.584-0.802h-2.94l0.214,2.674l0.16,2.674h-4.331 c-4.867,0-5.026,0.107-5.026,4.438c0,1.284-0.269,2.14-0.804,2.3c-0.427,0.214-0.802,0.642-0.802,1.069 c0,0.642-2.62,1.124-4.492,0.803c-1.39-0.268-2.459,0.642-2.459,2.139c0,1.443-0.161,1.551-1.872,1.551 c-1.284,0-1.872,0.268-1.872,0.75c0,0.48-0.643,0.854-1.712,0.962c-1.711,0.16-1.765,0.268-1.765,2.566v2.407l3.369,0.16 c2.621,0.106,3.424,0,3.637-0.695c0.215-0.534,1.016-0.803,2.406-0.803c1.337,0,2.247-0.267,2.407-0.748 c0.16-0.428,1.123-0.909,2.139-1.069c1.07-0.214,1.819-0.695,1.819-1.123c0-0.481,0.534-0.803,1.336-0.803 c0.749,0,1.497-0.374,1.658-0.802c0.214-0.428,0.695-0.803,1.123-0.803s1.391-0.481,2.14-1.069c0.748-0.588,1.711-1.07,2.085-1.07 c0.481,0,0.749-0.587,0.749-1.604v-1.604h5.24c4.438,0,5.455-0.16,6.149-0.962c0.535-0.535,0.91-1.283,0.91-1.659 c0-0.428,0.267-0.373,0.855,0.215c0.481,0.481,1.23,0.748,1.658,0.589c0.428-0.161,0.908-0.321,1.015-0.321 c0.107,0,0.215-0.375,0.215-0.803s0.375-0.803,0.803-0.803c0.588,0,0.803-0.642,0.803-2.353 C849.449,684.779,849.395,684.673,847.522,684.352z M789.873,702.214c-0.373,0-0.855-0.481-1.016-1.069 c-0.215-0.855-0.749-1.07-2.354-1.07c-1.176,0-2.3,0.16-2.459,0.375c-0.215,0.16-0.375,1.016-0.375,1.871 c0,0.963-0.268,1.497-0.802,1.497c-0.589,0-0.803,0.643-0.803,2.674v2.675h3.477c2.727,0,3.476-0.16,3.476-0.803 c0-0.428,0.374-0.802,0.803-0.802c0.588,0,0.802-0.643,0.802-2.674C790.622,702.963,790.408,702.214,789.873,702.214z  M925.013,722.535c-0.535,0.589-1.604,1.069-2.406,1.069c-0.962,0-1.497,0.269-1.497,0.803c0,0.535-0.588,0.802-1.871,0.802 c-1.497,0-1.872,0.214-1.872,1.017c0,0.534-0.374,1.123-0.802,1.337c-1.123,0.428-1.017,1.764,0.213,2.46 c0.589,0.267,2.14,0.535,3.477,0.535c2.085,0,2.46-0.161,2.46-1.07c0-0.855,0.374-1.069,1.604-1.069 c1.069,0,1.604-0.268,1.604-0.803c0-0.428,0.376-0.801,0.804-0.801c0.587,0,0.801-0.642,0.801-2.354 C927.526,721.733,926.404,720.878,925.013,722.535z"></path></svg>