<svg xmlns="http://www.w3.org/2000/svg" viewBox="0 0 124.78 65.78"><g id="Layer_2" data-name="Layer 2"><g id="Layer_1-2" data-name="Layer 1"><path d="M0,18.9c.27-.1.59.22.66-.25a2.29,2.29,0,0,1,.69,0,1.48,1.48,0,0,1,0-.21,1,1,0,0,1,.42-.1c.07-.24.07-.59.23-.78s.47-.37.65-.56c.38-.37.83-.53,1.21-.85s.41-.85,1.15-.77c.36,0,.45.17.66-.18s.35-.91.9-.89a5.28,5.28,0,0,0,.11-.89,2,2,0,0,1,.43-.05l.38-.1c.54-.12.34-.08.41-.59l.16-.06c-.11-.56.67,0,.67-.55.58-.05.29-.48.61-.74s.86.18.83-.53a1.44,1.44,0,0,1,.47-.06,1.7,1.7,0,0,0,.1-.68c.41-.15,0-.7.56-.84.11,0,.18.07.3,0,.3-.07.42-.28.79-.22a2.17,2.17,0,0,1,1,.58c.28.23,1,1,1.41,1s.43-1.26.67-1.61.6-.16.85-.41.06-.33.14-.47.21-.13.35-.26.2-.27.26-.31.41-.14.48-.21,0-.32.09-.44.16-.19.25-.32.14-.28.19-.33c.22-.23,0-.1.35-.19s.5,0,.35-.49c-.1-.35-.3-.41.07-.74s.48-.24.58-.73c0-.22.06-.82.35-.87s.16.55.35.78c.36.44.64-.5,1.13-.16s-.35.54-.61.62c-.63.21-.5.7.18.85.42.1.32.11.53.42a3,3,0,0,0,.87.88A2.22,2.22,0,0,0,23.71,7a2.82,2.82,0,0,1,1.51.27,1.48,1.48,0,0,0,1.22.38c.55-.08.72.16,1.24.22a1.35,1.35,0,0,0,.92-.22c.27-.23.13-.62.31-.82s.93.11.81-.39c-.07-.3-.65-.27-.81-.5-.31-.44.12-.62.52-.56s.71.38.95.09-.29-.53-.48-.69c-.35-.31-.34-.73.18-.8s.53.45,1,.52c.16-.38,0-.85.62-.57.1-.22.06-.51.4-.47.17,0,.1.21.22.25s.24,0,.39,0c.48.11,1,.46,1.52.39.2-.51.61-.75.93-1.17.07-.08.22-.16.26-.26s-.12-.33,0-.5.65-.1.9-.28.09-.28.25-.37a1.34,1.34,0,0,1,.57,0A4.44,4.44,0,0,1,40.2,3.2c.37.41.59.92,1,1.33a.93.93,0,0,0,.71.37c.3,0,.47-.35.77-.32s.29.54.31.83c.24.14.45-.12.52-.34s-.16-.67.33-.48c.29.11.32.35.71.34s.48-.16.4-.56c.8-.06,1.87.62,1.21,1.51-.33.44-.6.16-1,.32-.62.21-.08.4,0,.6.22.35-.12.78.13,1.1.44.55.75-.55,1.21-.47.09.43-.54.87-.4,1.21s.74.34,1,.31,1.11-.74,1-.17c-.07.36-1.08.3-.74.83.13.21.45,0,.34.33s-.47,0-.38.44c.09,0,.15.07.25.06,0,.28-.46.41-.27.71s.62-.05.86,0,.59.48.72.79a1.71,1.71,0,0,1,.15.73c-.13.27-.37.06-.51.26s.11.35.14.56a1,1,0,0,1-.09.52c-.12.45-.17.65.36.85a3.62,3.62,0,0,0,1.09.26,1.62,1.62,0,0,1,.82.06c.24.13.33.45.62.55A2.94,2.94,0,0,0,53,15.8c.19-.07.56-.34.77-.18s0,.46,0,.68a1.6,1.6,0,0,0,.39.68,1.8,1.8,0,0,0,1.18.65c.23,0,.28-.13.51,0s.16.38.29.52.74.13.51.65c0,.09-.25.14-.31.26s0,.39,0,.51c-.16.49-.83.53-1.15.86a1.2,1.2,0,0,0-.25.63c-.13.44-.38,1,.08,1.41s.82.26,1.13.82c.51.9.71,1.23,1.8,1.13a9.84,9.84,0,0,1,1.09,0A4,4,0,0,1,61,25a6.76,6.76,0,0,1,.73.5c.27.21.69.25.89.5.42.52-.1,1.27.47,1.77s1.31,0,1.89.37a4.53,4.53,0,0,1,1.13,1.14,8.72,8.72,0,0,0,.65.94c.32.36.77.48,1.13.78s.31.42.61.53.78-.05.61.41c-.1.26-.33.31-.39.62a3.62,3.62,0,0,0,0,.87,10.35,10.35,0,0,1,0,1.58c0,.41.08.38.26.68s.34.5-.09.5c0,.22-.06.44-.09.65.22.12.23.37,0,.4,0,.37.7.14.55.73a4.17,4.17,0,0,0-1.65,0,2.58,2.58,0,0,0-1.16.66c-.29.42-.06,1.16-.06,1.62,0,1-.73.13-.84.78-.22.06-2,.55-1.14,1.07.41.25,1.44-.85,1.76-.37-.35.22-.71.42-1.06.65a4.37,4.37,0,0,1-.89.51c-.32.1-.69,0-1,.07s-.39.71.08.49a.45.45,0,0,1,0,.2A2.1,2.1,0,0,0,62.21,45a6.16,6.16,0,0,0,0,2,3.52,3.52,0,0,0,.25,2c.24.38.78,1.21,1.28,1.26a3,3,0,0,0,2.24-1.43,2.12,2.12,0,0,0,.16-.67c0-.1-.06-.18,0-.31s.14-.19.14-.26c0-.74-.81-.13-1-.77.37-.14.65.07,1,.07s.79-.26.74.22c0,.07-.26.18-.3.26s0,.3,0,.48-.07.68.32.69.65-.58.92-.76,1-.29.81-.79a1.26,1.26,0,0,0-.38-.1c-.18-.32.19-.39.33-.62s.07-.56.36-.73c.2.2-.09.58-.12.84a1.12,1.12,0,0,0,.29.87A9.29,9.29,0,0,1,70,48.73a3.29,3.29,0,0,1,.37.86c0,.31-.15.57-.07.89.14.57.59.27.94.5s.15.36.31.5.55,0,.78.16a1,1,0,0,1,.38.83c-.22,0-.34-.6-.65-.3s.1.75.35.88,1.67.64,1.91.16c.14-.3-.1-.12-.21-.28s-.16-.16-.17-.45a1,1,0,0,0-.4-.92c-.13-.14-.25-.11-.26-.35s.22-.15.31-.33c.16-.33,0-.48-.3-.68s-1.39-1-.4-1.17a2.29,2.29,0,0,1,1,.18c.51.24.24.43.45.82s.59.07.81.32-.29.38-.47.57c-.47.48,0,1,.28,1.41s.15.92.33,1.41.69.3.88.7c.1.22-.08.44.14.65s.37.14.47-.12-.12-.3.13-.53.47,0,.38-.47c-.55-.09,0-.55.14-.71,0,0,.29-.44.28-.38,0-.23-.08-.23-.18-.41s-.44-1,.12-.78c.37.14-.14.85.34.93,0,.4-.06.77.4.9.2,0,.35-.07.53,0s.21.19.39.18c.64,0,.13-.42.17-.65.08-.47.6-.19.87,0,.14.65-.78.87-1.13,1.08-1.06.63.55.9,1.05,1a2.84,2.84,0,0,1,1.49.78c.62.46,1,.51,1,1.36a1.43,1.43,0,0,0,.18,1c.16.2.72.45,1,.21.39-.38-.46-.55-.6-.76-.37-.55.44-.35.66-.15s.44.88.78.87c.61,0-.25-.6-.21-.81.17,0,.22,0,.3.11.64.08.27-.41.29-.7s.21-.22.19-.47S85.2,56.19,85,56s-.58-.32-.83-.53-.74-.85-.62-1,.55.34.72.47.65.35.92.6a3.45,3.45,0,0,1,.64.69c.09.28-.15.37-.16.58,0,.61.61.23,1,.3a.41.41,0,0,1,.05.21c-.13.09-.38.1-.48.18a2.05,2.05,0,0,0-.35.44,1.64,1.64,0,0,0,.14,1.17c.31.06.27-.24.27-.47.17-.08.38-.11.55-.17,0,.35-.17.69-.07.94s.46.3.6.53.08.37.23.56.21,0,.27.1.08.26.16.38c.19.27.45.24.65.41s.38.71.56.25c.07-.18-.49-.78-.56-1a3,3,0,0,1-.05-1.48c-.42-.12-.38.14-.52.41a2,2,0,0,1-.3-1.16c0-.22,0-.55.3-.53s.2.34.26.53c.16.48.59.48.7-.05.16-.73-.84-1.36-1.22-1.88a6.13,6.13,0,0,1-1-2.31,1,1,0,0,1,.17-1,2.68,2.68,0,0,0,.44-.74c0-.88-1.13-.31-1.47,0a1,1,0,0,1-1,.24c-.35-.18-.37-.67-.68-.9-.16-.12-.3,0-.47-.1s-.2-.1-.38-.27S83,51,83,50.78c0-.52.53-.1.64-.46s-.75-.53-1-.59a5.08,5.08,0,0,1-2.5-1.66,6.94,6.94,0,0,0-.46-.8c-.24-.26-.5-.41-.58-.77,0-.17,0-.36,0-.53s-.23-.17-.31-.31a2.5,2.5,0,0,1-.19-.9c0-.33.22-.53,0-.85s-.51-.25-.63-.56c.25-.31.57.08.75-.3s-.13-.65-.14-.92c0-.58.45-1.39-.33-1.58a2.61,2.61,0,0,1-.06-.69,1.4,1.4,0,0,0-.14-.56c-.08-.29,0-.21.06-.53a3.87,3.87,0,0,0,0-.69c.59-.18.39,1.36.42,1.74a2.64,2.64,0,0,0,.31.88,2.31,2.31,0,0,1,.13,1,4.68,4.68,0,0,0,0,.53c0,.24.1.23.18.39.2.42.08.43,0,.86s.3.34.35.71a4.31,4.31,0,0,1-.17.44,1.82,1.82,0,0,0,0,.57c.07.21.24.21.34.36s.09.38.2.59.6.77.94.7a.87.87,0,0,0,.1-.55c.54-.08,0,.8.12,1.05s.8.3,1.06.51.09.3.29.4.32-.07.57,0c.51.06.46.52.63.86.68.18.34-1,.43-1.34.35,0,.28.54.3.78.05.51-.26.47-.31.87s.34.4.56.56.26.44.2.84c0,.23-.26.78.12.93s.14-.53.23-.75c.22-.59.32,0,.42.17s.36.31.69.12a1.93,1.93,0,0,0,.81-1.52c.05-.8-1.18-1.86-1.72-2.35-.38-.35-.62-.85-1-1.24-.25-.23-.39-.32-.45-.65s0-.64-.1-1a6,6,0,0,1-.48-1.14,6.78,6.78,0,0,1,.06-1.74,5.23,5.23,0,0,0-.34-2,5.22,5.22,0,0,1-.14-2c0-.28.15-.74-.09-.91s-.34.06-.47-.06,0-.34-.1-.51c-.11-.41-.77-1.16-.18-1.39.27-.1.67.32.88-.06s-.32-.67.35-.58c0-.33,1.06-1.72.14-1.56-.12-.59-.38.1-.43.15-.23.22-.56.13-.58.48a1.1,1.1,0,0,1,.26-1.45c.14-.1.19.08.34-.18.05-.08.11-.33,0-.42-.2-.29-.56.07-.68.16a.61.61,0,0,1,0-.4c0,.13.31-.36.23-.29.15-.12,0-.15.27-.15.11,0,.19.22.38.2,0,.6.42.6.52.07s-.39-.68-.3-1.08a4.13,4.13,0,0,1-1-.3c-.28-.28.1-.67-.47-.79,0,.08-.16.34-.26.34-.26,0-.12-.19-.22-.3S80.8,28.31,81,28c.4-.08,1.11.82,1.31.09.37-.11.57.29.73.51s.15.27.22.37.15,0,.21.08,0,.21,0,.27c.36.21.47-.46.71,0,.09.17-.11.9.39.69.17-.06.12-.69.15-.86.07-.53-.11-.33-.33-.71s0-.43-.6-.61-.45-.26-.41-.66c0-.25.15-.29-.06-.53s-.42-.13-.54-.26,0-.33-.14-.47-1-.13-1.19-.42.36-.55.28-.88a1.24,1.24,0,0,1-.39-.1c-.12-.09,0-.22-.16-.31a3.35,3.35,0,0,0-.7-.22.34.34,0,0,1,0-.2c.32-.17.58.09.87.2s.44.12.68.41.41.33.54.52a3.29,3.29,0,0,0,.47.75c.37.39.56.83.91,1.22.12.14.41.44.62.38s.4-.55.1-.66a.86.86,0,0,1,0-.16c.5.11.25-.5.73-.44.32,0,.29.44.65.44.26.46.39-.42.28-.67s-.46-.75-.8-.82c-.63-.13-.72.6-1-.13-.08-.26,0-.33-.26-.45s-.5,0-.44.27c-.3.07-.19-.15-.36-.26s-.31-.13-.5-.23-.7-.76-.28-1c.25-.12.28.19.4.32a.56.56,0,0,0,.48.26c.33.05,1.09.1.87-.39.83-.94.58,1.16,1.17.73.22-.15,0-.82,0-1a2.59,2.59,0,0,1-.13-1c-.43-.13-.31.32-.65.39s-.58-.14-.86-.05a.32.32,0,0,1-.09-.34c.27-.09.56,0,.74-.27-.07-.05-.15-.18-.23-.21.29-.3.34.23.58.13s0-.43-.08-.54-.39-.12-.58-.24-.16-.4-.52-.31c-.06.18-.09.55-.32.64-.46.18-.36-.31-.21-.51-.31,0-.43.38-.7.39-.86,0,.33-.77.34-.84.1-.36-.11-.19-.3-.42s-.2-.83-.73-.74c-.13.28-.11.65-.28.9s-.59.25-.52.65c-.34,0-.36-.88-.22-1.13s.32-.24.4-.39,0-.39,0-.56.44-1-.21-.71c-.13-.39-.3-.54-.75-.38-.08.71-1.08-.69-.39-.67.28,0,.34.49.72.26.16-.09,0-.27.18-.35s.26,0,.41.05a2.3,2.3,0,0,1,.79.26c.24.14.32.57.51.62s.34-.39.48.08-.49.95.25.65c.33-.13.23-.2.36-.47s0-.39.32-.43.36.17.3.43-.84.79-.14.92c.22,0,.32-.15.56-.08s.18.32.53.26c.16.33,1.58-.72.75-1-.48-.14-.5.16-.84-.29-.18-.23-.39-.47-.55-.72a1.84,1.84,0,0,0-.57-.61c-.18-.14-.59-.49-.44-.77s.72,0,1,.05c.4.1.67,0,.7.55,0,.25-.13,1.55.61,1.13.31.56.29-.24.35-.39s.48-.44.4-.78-.12-.11-.31-.26a3.88,3.88,0,0,1-.31-.26s0-.16-.08-.22-.24,0-.31-.09-.32-.17-.25-.43c.5-.2,1.3.57,1.53,0,.27-.05.34.31.6.2s.12-.6,0-.69-.66.07-.53-.35.45,0,.45-.38h.16c0,.54.68.7.57.12,0-.14-.26-.24-.3-.39s.07-.36.08-.61c-.12,0-.41-.21-.52-.18s-.18.38-.45.32c-.1,0-.19-.3-.34-.37s-.55.09-.47-.29c.37-.06,1.12.34,1.1-.36a.58.58,0,0,1,.32,0c0,.71,1.29,0,1.46.73.08.38-.22.61-.14,1,0,.12.19.23.23.35a4.85,4.85,0,0,1,.08.53c.09.31.23.55.56.29a2,2,0,0,0,.4-.86c0-.43-.36-.48-.54-.79s0-.66.1-1,.4-.77.48-1.18-.2-.93-.56-.43c-.78-.47.89-1.48,1.17-1,.18.31-.2.69,0,1.06.1.16.24,0,.31.25s0,.43-.25.45a1.62,1.62,0,0,0,.3.69c.24.25.4.08.74.17s.39.42.69.17,0-.4.15-.57.4-.23.63-.35a2.8,2.8,0,0,0,.55-.46c.19-.15.32-.31.47-.45s.4-.14.65-.29a.8.8,0,0,0,.35-.58c0-.11-.16-.11-.17-.26s.15-.32.13-.39c-.1-.39-.44-.19-.7-.22s-.49-.21-.82-.18c-.21-.59.32-.59.48-1.05,0-.11,0-.23,0-.3.21-.5.49-.67.32-1.25A2.88,2.88,0,0,0,93.91,5a7.64,7.64,0,0,1-1-1c-.25-.38-.18-.88-.46-1.24a9.14,9.14,0,0,0-.81-.71c-.52-.51-1.4-.84-1.23-1.74.45-.14.52,0,.68.35a3.74,3.74,0,0,0,.53.75A9,9,0,0,1,92.66,2.7c.14.28.12.57.25.84s.42.39.64.57a7.48,7.48,0,0,1,1.22,1.23c.22.29.22,1,.64,1.07s.19-.19.33-.38.35-.24.66-.3c.16.3,0,.69.45.66s.28-.52.42-.72.56,0,.76-.42c.07-.17.07-.87.46-.48S98,5.92,98.07,6.41s.36.41,0,.72c-.09.07-.22,0-.3.11s-.1.35-.19.5-.49.46-.48.86c0,.16.13.28.13.39s-.16.32-.16.49c0,.62.34.25.56,0a9.28,9.28,0,0,1,1-1c.44-.4.23-.38,0-.82.32-.27.87-.07,1.26-.18.64-.17.24-.47.4-.91s.47-.55.6-.92.11-1,.52-1c.15.11.24.72.27.87,0,.42-.13.26-.39.58-.07.09-.06.3-.15.42s-.26.13-.35.27.13.81,0,.93-.37,0-.5,0-.22.21-.33.27-.87.12-.76.56c.07.26.61.24.82.32s.23.12.36.16.2,0,.26,0,.12.17.13.18l.31.17.17.26s0,.13.06.17.17,0,.21,0,.23.06.25.25c-.31.23-.32,0-.52-.12a1.55,1.55,0,0,0-.64-.14c-.18-.73-.59-.42-1.2-.51-.17,0-.52-.3-.73-.18s-.07.45-.05.69c-.43.25-.33-.33-.65-.26s-.09.25-.18.4a1.25,1.25,0,0,1-.25.27c-.14.16-.51.34-.53.56,0,.44.52.29.39.73-.32.09-1.44-.22-1.31.53.09.5,1.16.56,1.48.7.13.06.17.23.36.22s.16-.2.29-.26.59-.06.88-.14c.09,0,.15-.37.32-.18s-.13.17-.17.24c-.2.31-.24.32,0,.45.06,0,.31,0,.42,0s.32.22.54.24,1,.11.75-.38c.08,0,.68-.07.69-.07.36.14,0,.27-.25.28,0,.11-.07.18-.06.3a2.75,2.75,0,0,0-1.6.15c-.1,0-.14.22-.27.2s-.1-.22-.22-.3-.58-.29-.57.17h-.17c0-.17,0-.35,0-.52-.26,0-.64,0-.57.38a.42.42,0,0,1-.57-.37c-.33,0-.69,0-.65.46,0,.26-.51-.46-.48-.44-.29-.25-.63-.06-.95,0s-.73-.24-1.05-.18-.14.15-.26.35,0,.17-.06.26-.24,0-.28.06c-.25.26-.16.64.29.61,0,.61.76.1.91.59-.37,0-.77-.33-1.23-.13-.16.07,0,.47-.38.14-.12-.12,0-.48-.3-.48s-.52.78-.43,1,.32.23.39.4a1.34,1.34,0,0,1-.06.69c-.31.05-.31-.37-.3-.59-.68-.19-1.06,1-.56,1.4.1.08.39,0,.43.17s-.21.25-.34.25c-.53,0-.53-.77-.9,0a11.57,11.57,0,0,1-.56,1.3,3.93,3.93,0,0,0-.82,1.41c-.09.62.46,1.05.74,1.49s0,.55.14.87.28.45.35.7a2.8,2.8,0,0,1,.08,1c0,.34-.33.54-.35.83a.75.75,0,0,0,.49.61c.42,0,.33-.46.38-.74-.43-.12-.44-1.2-.38-1.57h.12a1.18,1.18,0,0,0,.14.22c.4-.36-.15-1.12-.4-1.41.35-.55.46.72.84.78.61.1.89-1.1.26-1,.06-.21.34-.27.25-.56s-.39-.23-.47-.48.29-1,.69-1c.11.39-.28.49-.3.83s.17.69.39.74c.47.11.36-.5.39-.78s0-.5.49-.62.18.11,0,.36-.12.54-.24.9-.44.47-.54.76c-.17.49.21.42.48.18s.23-.7.64-.58c-.05.21,0,.36.21.34.25-.48,0-.59.53-.87.23-.12.21,0,.36-.26s.1-.36.47-.53.58-.08.48-.46-.56-.29-.52-.76c.06-.67.62-1,1.18-1.34s.94-.7,1.57-.57a2.62,2.62,0,0,0,1.05.08c.49-.08,1-.36,1.46-.39.13,0-.16.36-.18.38a1.69,1.69,0,0,1-.5.14,6.89,6.89,0,0,1-1.44.09c-.58,0-1.33-.14-1.8.3-.28.28-1,1.08-.85,1.36s.49.23.55.6c0,.12-.27.15-.11.35s.38.06.5.06c0,.39-.47.37-.56.68a.49.49,0,0,1-.38,0c0-.11-.06-.18-.06-.29-.56-.17-.33.42-.42.7-.17.5-.75.47-1.07.81-.18.19-.17.33-.37.5s-.46.13-.35.51c.38.15.58-.18.88-.14.08,0,.59.45.6.58,0,.58-.37-.18-.45-.21-.46-.16-.14.48-.55.47.14-.64-.84-.5-.92-.12s.47.14.39.43-.56-.07-.48.38a1.24,1.24,0,0,0,.43.06v.16c-.24,0-.36-.17-.6-.17-.06-.59-.4-.37-.39.13,0,.65.17.22.59.32.06.34-.36.28-.34.6s.4.15.65.18c.12.5-.75.79-1,1s-1.06,1.2-1,.5c-.38-.08-.76.14-1.09.05s-.28-.27-.59-.24c-.17-.53-.85-.26-.84-.82,0-.25.47-1.28-.34-1-.15.4-.09.85-.23,1.26a1.17,1.17,0,0,1-.69.75c0,.42-.39.62-.4,1.08s.13.86.13,1.31A2.87,2.87,0,0,1,87.42,31a2.61,2.61,0,0,0-.18,1.22c.37.21.69-.6.83-.86.3-.55-.09-.73,0-1.22,0-.1.17-.06.17-.23s-.12-.14-.14-.25-.22-.13-.16-.26.26,0,.34-.06.42-.27.31-.52-.49,0-.43-.39c.13,0,.33,0,.44-.08s.1-.25.19-.33c.34-.3.57-.22.48.22s-.32.52-.29.88c0,.62.4.36.61,0s.38-.38.57-.65.06-.51.52-.65c1-.33-.26,1,.91.79,0,.08,0,.21,0,.29.31.08.28.43.28.7s0,.92.4.48c.2-.2-.17-.68.14-.79s.16.53.18.7c.41,0,.29-.94.34-1.21s-.26-1,.13-1.23a.81.81,0,0,1,.23.48c.54-.07,0,1.28-.14,1.49.31.06.91.07,1,.47.41.07-.06-1.31.6-1.38.17.37-.22.69-.17,1.08.06.58.58.25.74.57s-.44.39-.61.61,0,.37-.21.45-.31-.1-.28-.31a1.6,1.6,0,0,0-.87.07c-.53.35.18.21.28.39.27.45-1.06.47-1.31.59-.08.23.19.36.34.48a.62.62,0,0,1-.3.22c0,.24-.3.58-.22.72.19.31.37-.2.6-.16l0,.13c-.07,0-.14.13-.25.14s0,.17,0,.24a.34.34,0,0,0-.14.55c.34.29.27-.19.37-.28.37-.32.08.08.3.22s.42,0,.32-.3c.17,0,.29,0,.46-.06a.54.54,0,0,0,0-.43c.21-.07.49,0,.48-.25a.34.34,0,0,1,.34,0c0,.23-.59.73.08.66.12.24-.09.35-.33.3-.2.27-.63.32-.88.54s-.32.45-.57.5a1.67,1.67,0,0,1-.74-.22c-.54-.21-.56-.72-.7-1.22s0-.39-.39-.57A2,2,0,0,1,90.5,33c-.41-.34-.78-.93-.74,0-.81,0-.65.16-.84.87a2.88,2.88,0,0,0-.21.74c-.88.31-.48,2.1-.56,2.85s.54.74.35,0c0-.11-.15-.19-.13-.31s.16-.11.23-.25c.14-.3.06-.37,0-.66.38-.07.24-.49.17-.71s-.22,0-.15-.31.26-.09.28-.33c.32,0,.39-.26.31-.48.33,0,.17.39.55.29a.85.85,0,0,0,0-.42c-.11,0-.18-.06-.29-.06s-.11-.2-.18-.3c.17-.16.53-.06.74,0s.22-.08.4.28c0-.09.15-.15.18-.26h.16c.05.26-.25.38-.3.64s.12.45.18.7c.28-.1.1-.53.34-.57s.11.53.47.41a.29.29,0,0,1,0,.29c-.12.07-.22.35-.07.48s.4-.12.56-.08c.55.12.26.52,0,.74-.08.07-.27.31-.44.26s-.12-.41-.35-.35,0,.31,0,.44-.18.32-.13.56c.25,0,.72-.71.87,0,0,0,.08,0,.12,0,.18.36-.5.2-.48.69,0,.13.07.4.23.43s.2-.3.26-.42.17-.21.21-.4,0-.39.09-.57.27-.22.35-.35,0-.32.26-.4c.23.2-.2,1.09.36.76.26-.15.06-.35.16-.58s.37-.23.48-.4c.27-.47-.25-.87.57-.87s-.12.2-.08.66c.1,0,.24,0,.34,0,0,.28.3.23.32.33s0,.41-.35.35c.05-.77-.8.07-.93.27.22.32.55-.08.78.1s-.18.44-.37.45c.11.28-.08.27-.27.37a2.62,2.62,0,0,1-.28,0s-.17.17-.2.18,0-.24,0-.34c-.25-.1-.86,0-.61.34-.27.09-.37.65-.2.87s.59,0,.85-.09a2.61,2.61,0,0,0,.76-.43c.16-.15.61-.63.83-.26-.21.2-.5.44-.35.79s.46.16.38.69a.6.6,0,0,0-.46.37c-.1.36.15.24.3.5.45-.05.27-.08.52.27.12.18.23.5.39.62.8.6.58-.81,1-.79,0,.22.19.35.18.56s-.19.32-.17.56a.73.73,0,0,0,.78-.29c.09-.15,0-.37.09-.53s.19-.19.16-.38-.21-.2-.22-.31c0-.34,0-.15.22-.32s.49-.37.62-.65a.9.9,0,0,0,0-.86c-.18-.37-.38-.31-.65-.5s-.2-.54-.42-.79-.5-.2-.4-.73a3.42,3.42,0,0,1,1.48-1.84c.44-.33,1.43-1.39,2-1.29.23.4-1,.9-1.2,1.09a5.74,5.74,0,0,0-1.23,1.13c-.39.52-.78.86-.32,1.49.16.22.34.45.52.66a2.86,2.86,0,0,1,.41.68c.21.41.31.4.26.88a1.55,1.55,0,0,0,0,.6c.13.19.47-.08.47.26-.24.22-.85,0-1,.31s.49.71-.08.89c0,.33.14.51-.14.68s-.5-.18-.53.26a2.3,2.3,0,0,0-.57.21c-.2.18-.13.44-.5.4,0-.5-.54-.33-.92-.35,0-.27-.19-.29-.31-.47s-.24-.45-.48-.43c-.13.35-.42.55-.52.86a1.94,1.94,0,0,1-.06-.6c-.24-.09-.73-.79-.92-.32-.29.09-.43-.21-.77-.17a.74.74,0,0,1,0-.21c.27,0,.31-.44.17-.61-.25-.33-.81.53-1,.62a.23.23,0,0,1-.07-.14,1.14,1.14,0,0,0-.55,0c0-.21.13-.48-.1-.6-.44-.2-.28.29-.4.43-.52.64-.66-.39-1-.39-.25.47.62.69.66,1.09,0,0-.54,1.6.21,1.08.28-.2-.07-.43.31-.56s.32.17.45.39c.45.8.37-.2.68-.25.08.19,0,.41.1.6.53.25.34-.29.47-.52a.34.34,0,0,1,.53-.12c.18.19-.13.55,0,.78s.35,0,.48.09.31.4.31.4a.92.92,0,0,1,.09.55c-.19.07-.64-.11-.78,0s0,.59-.21.71-.28-.27-.5-.4-.61.11-.52-.35a.42.42,0,0,0-.29,0c0,.45,0,.53-.39.44-.23.74-.31,0-.62.08-.58.07-.06.78,0,.95-.51,0-.62.19-.79.61-.09.23-.21.14-.05.42s.38,0,.31.42c-.47.11-.53-.4-.85-.57-.07-.32.23-.29.37-.49a1.32,1.32,0,0,0,.18-.76c-.4-.29-.41,0-.69.21s-.61.08-.74.43.37,1.22.6,1.54c.39.57.8.7.92,1.43,0,.29,0,.74.17,1s.3,0,.49.13.12.15.26.3,0,.21,0,.25c.68.12-.07-1.13.42-1.22.27-.06.56,1.12.8.85.2,0,.61.34.75.5.3.35.08.72.68.67.27,0-.16.83-.16.83,0,.25.29.35.39,0,.38-.12.36.3.35.55.19.1.33,0,.52,0s.25,0,.44.22.12.25.27.38.28.14.38.31c-.11.1-.38.29-.31.49s.38.09.52.22.16.72.48,1c.54.42.47-.13.49-.44s.36-.91-.13-1c-.16-.32.52-.4.35-.87s-.74-.24-.69-.69c0-.16.23-.26.3-.39s.09-.36.16-.49.57-.41.54-.66-.74-.09-1-.19-.14-.17-.27-.34a5.56,5.56,0,0,0-.47-.5c-.4-.46.3-.79.59-.41.09.11.07.39.15.54a1.55,1.55,0,0,0,.39.48c.22.15,1.1.48.76-.17.21-.17,0-.47.29-.49,0,.09.07.15.06.25s.42-.05.51,0,0,.26.1.38.91.31.48.53c-.17.45.1.47-.4.68a4.16,4.16,0,0,0-.75.48c-.1.08-.3,0-.34.23s.16.21.25.36.18.34.19.34.31.14.39.22c.29.25.15.48.27.82,0,.07.17.14.2.3s-.19.2,0,.42a.39.39,0,0,0,.7-.15c0-.3-.3-.55-.39-.82a3.27,3.27,0,0,1-.16-.74c.38-.08.31.66.63.24.15-.19,0-.67.06-.9,0-.5.36-.49.6-.93a5.38,5.38,0,0,1,.62-.86c.12-.15.46-.2.18-.47s-.52-.06-.66,0c-.27-.25.07-.53.34-.44s.3.56.41.61c.48.17.32-.29.39-.48s.29-.38.4-.65,0-.55,0-.88.18-.37.38-.66,0-.47.06-.78c.14-.52.37,0,.36.3.43,0,.2.37,0,.54s-.46.27-.45.65.36.46.36.65-.53.21-.49.61c-.32,0-.24.51-.34.75a7.34,7.34,0,0,1-.48.75,8.16,8.16,0,0,1-.41.76,5.45,5.45,0,0,0-.29.89c-.11.26-.38.46-.43.74s.15.58.26.86.16.77.51.76c.53,0,.19-.64.19-.88s.15-.51.29-.52,0,.57.19.65.36-.16.51-.22a3.38,3.38,0,0,1,1.22-.34c-.11.69-1.91.37-1.69,1.34.63.1,1-.5,1.21.31-.22.26-.48,0-.75.26s-.25.35-.73.4a7.71,7.71,0,0,0-1,.17,3.25,3.25,0,0,0-1,.23c-.26.21-.2.7-.19,1s-.13.77,0,1a.47.47,0,0,0,.43.22c.31-.06.14-.23.26-.39.26-.36.42-.2.83-.28.12,0,.24-.12.35-.12s.1.05.27.12.22.3.56.15.24-.29.61-.36.41,0,.66-.22c.06.1.15.13.18.26.36.11.38-.14.59-.31A1.15,1.15,0,0,1,105,57c.05.47-.86,0-.77.59.5,0,.64.16.21.41a1.79,1.79,0,0,1-1.05.26c-.33,0-.81-.22-.87.26s.45.44.35.82c-.4.11-.87-.64-.84.3-.34.08-.34.91-.07,1s1-.22,1.34-.2c.09.19.39.13.53,0s0-.3,0-.53a1.42,1.42,0,0,1,.92-.56c0,.1,0,.24,0,.34s.27,0,.38,0c0,.17-.45.48-.61.6s-.48.28-.61.53,0,.42-.48.52c-.14,0-.26-.11-.39,0s-.1.3.08.36c.14.58-1.25,0-1.44.48,0,.13.1.31,0,.42s-.31.18-.38.27a1.7,1.7,0,0,0-.3.91c.46.1.49-.61,1-.59,0,.34-.17.57.1.85a1.93,1.93,0,0,0,.42.06c0,.42-.82.36-1,.43s-.34.77-.1,1.06.21.15.45,0c.08-.05,0-.2.22-.26s.19,0,.29,0c.27,0,.28.24.57,0s.11-.37.32-.53c-.15-.13-.32-.29-.26-.51.22,0,.26-.19.42-.26,0,.1.08.21.06.33.24.06.41-.12.6-.22,0-.47.48-.16.66-.21s.27-.42.6-.34c0,.14,0,.61.11.68.37.18.31-.39.38-.51s.36-.44.53-.36,0,.32.06.42.47,0,.69,0,.19.1.38.21.08.18.35.18.18-.18.35-.31.36-.1.44-.17.08-.3.21-.44a1.9,1.9,0,0,1,.87-.31c.7-.14,1.42-.12,2.14-.22s1.36-.31,2.06-.39a7.58,7.58,0,0,0,1.43-.2c.57-.19.1-.27.41-.66.14-.18.5.06.48-.31.24-.09.74,0,.82-.35s-.45-.34-.73-.41c-.44-.09-.6-.27-.19-.57.14-.09.31-.06.43-.2s.08-.31.14-.48c.29-.77,1.07-.14,1.45-.83s.42-1.21.68-1.76a3.82,3.82,0,0,0,.36-1.26c0-.38-.11-1,.12-1.31s.31-.13.49-.21.29-.23.44-.44c.29-.41.44-.34,1-.46,0,.47-.77.69-.74,1.2a.44.44,0,0,0,.52.44c.18,0,.3-.34.44-.48a4.34,4.34,0,0,0,.49-.47c.2-.28.1-.43.2-.71s.3-.32.4-.57c.19-.48,0-.69.38-1.12s.7-.67.62-1.11-.5-.41-.83-.39a2.9,2.9,0,0,0-1,.17c-.22-.32.09-.36.25-.52s.61-.44.14-.48c.09-.31.57,0,.38-.52a.7.7,0,0,0-.56-.44c-.36-.07-1.46.19-1.44-.43.13,0,.25-.08.38,0a.9.9,0,0,0-.07-.47c.52-.21.62.33,1.13.38.25,0,.45-.08.67.12s.1.39.33.53c.64.36.79-.48.35-.81s-.71-.23-.66-.92a.62.62,0,0,0-.26-.09l-15.83-.07L103,0,88.88.19,61.47.59,43.89.39,25.06.36.6,0Z"></path><path d="M121.38,55.87c.13-.31.27-.61.39-.95s.33-.64.47-1,.34-.67.48-1,.07-1.05.61-1a3.69,3.69,0,0,1-.55,1.84c-.26.56-.5,1.11-.72,1.69-.47,1.22-.18,2.71-1,3.81a7,7,0,0,0-.91,1.78,3.3,3.3,0,0,1-.8,1.48c-.17.14-.67.44-.82.14-.07-.14.27-.61.35-.74a12,12,0,0,1,1-1.63,3.23,3.23,0,0,0,.37-.37c.17-.27,0-.29.07-.54s.44-.72.58-1.12a8.92,8.92,0,0,0,.35-1.42,5.25,5.25,0,0,1,.11-1Z"></path><path d="M124.3,46.72a.4.4,0,0,1,.34-.39c.33.36,0,1.53-.08,2a7.52,7.52,0,0,1-.35.87c-.1.34.08.77,0,1.09s-.51.3-.48-.13a5.05,5.05,0,0,1,.26-.92,6,6,0,0,0,.43-1.91A2,2,0,0,1,124.3,46.72Z"></path><path d="M96.41,56.46c.37-.22-.14-.3-.18-.4-.13-.28,0-.51.34-.44s.17.39.36.65.42.12.49.4-.16.39-.23.61.14.5-.31.44-.26-.31-.27-.61c-.39-.21-.35.14-.56.3s-.57.19-.57-.17c0-.11.24-.11.22-.26s-.2-.14-.25-.28c-.11-.31,0-.66.38-.38C95.83,56.32,96.17,56.61,96.41,56.46Z"></path><path d="M97.32,62.61c-.31,0-.7-.27-.48-.6.08-.12.33-.1.43-.15a3.1,3.1,0,0,1,.4-.21c.31,0,.27.52.39.74l.26.35c.1.1.27,0,.34.22s0,.91-.42.86c-.17-.24,0-.56-.19-.81a1.07,1.07,0,0,0-.78-.4Z"></path><path d="M97.19,59.73c.09.53,1.11,1,.91.17C98,59.63,97.12,59.25,97.19,59.73Z"></path><path d="M97.26,58.14c0,.15.27.28.22,0C97.47,58.11,97.24,58,97.26,58.14Z"></path><path d="M97.69,58.78c.15,0,.35-.18.11-.2C97.72,58.57,97.55,58.75,97.69,58.78Z"></path><path d="M91.65,50.87c-.24.09-.36,1,0,.81C91.75,51.61,91.85,50.79,91.65,50.87Z"></path><path d="M77.82,54.3c0,.19.44.35.36.07C78.16,54.27,77.79,54.14,77.82,54.3Z"></path><path d="M97.27,64.09c-.57.06-1-.94-.3-.84C98.18,63.44,97.27,64.09,97.27,64.09Z"></path><path d="M98.2,64c-.76-.18-.35,1.15.09,1C98.33,65,99,64.14,98.2,64Z"></path><path d="M92.3,53.18a.71.71,0,0,0,0-.43c.15-.47.36-.15.47-.14.42,0,.11.14.26.39a.59.59,0,0,0,.87.17c0-.25.2-.61.48-.55.27.54-.52.5-.61.9s.7.45.61.92c-.26.13-.31,0-.5-.1a1.85,1.85,0,0,1-.58-.08c-1.31-.77-1.07-.77-1-1S92.3,53.18,92.3,53.18Z"></path><path d="M93.74,39.75c0-.14-.18-.41-.09-.5s.42,0,.56-.07c0-.24.39-.33.55-.26s.25.13.15.28-.22.07-.3.16c-.21.25.09.48-.31.59C94.11,40,93.8,40,93.74,39.75Z"></path><path d="M93.21,43c.09.33-.65.21-.85.22s-.33,0-.19.28.22.1.35.18,0,.12.1.15.14,0,.2-.08.32-.09.46-.16.52-.75.13-.66c0,0,.07-.27-.2.07Z"></path><path d="M90.07,34.73a2.42,2.42,0,0,1-.2.37c-.1.1-.23.19-.35.29s-.45.51-.25.84c0,.09.1.11.12.2s0,.2,0,.29a.38.38,0,0,0,.45.26c.26-.09.13-.27,0-.39a.6.6,0,0,1-.17-.46c0-.11-.1-.26,0-.35s.19,0,.28.09a.43.43,0,0,0,.6-.18c.14-.32-.28-.34-.25-.63s.19-.64-.26-.57Z"></path><path d="M90.18,29.38c-.19-.06-.08-.49,0-.63s.34-.52.43-.15c0,.11,0,.26,0,.37s.09.25,0,.37S90.18,29.38,90.18,29.38Z"></path><path d="M92.54,31.17c-.05-.14.18-.2.23-.35s0-.33.22-.48a1.37,1.37,0,0,1,1-.17c.37.1.45.76,0,.61,0,0,0-.12-.07-.13s-.12.05-.17.06a2.08,2.08,0,0,0-.3.12c-.2.08-.48.09-.47.39C93,31.22,92.76,31.83,92.54,31.17Z"></path><path d="M90.39,13.32a.9.9,0,0,1,0-.51c0-.07.13-.1.16-.19s0-.2,0-.29.17-.32.32-.14,0,.35.14.47.38,0,.54,0c.51.1.18.43,0,.66s-.19.38-.38.46-.1-.46-.44-.29C90.72,13.51,90.44,13.58,90.39,13.32Z"></path></g></g></svg>