<svg xmlns="http://www.w3.org/2000/svg" viewBox="0 0 110.07 65.78"><g id="Layer_2" data-name="Layer 2"><g id="Layer_1-2" data-name="Layer 1"><path d="M66.45,39.61c-.13.13-.06.65,0,.87a2.26,2.26,0,0,1,0,.82c-.12.59,0,1.21,0,1.83s.31.95.85,1.26a10,10,0,0,1,1.37.89,3.5,3.5,0,0,1,.69,1c.22.38.33.57.72.68.06,0,.08,0,.15,0s0,.11.1.14.09.13.23.12.12-.19.3-.18.13.29.46.17a1.25,1.25,0,0,0,.45-.35c.12-.15.18-.35.3-.48s.28-.19.4-.37.06-.31.11-.6.19-.36.35-.54a1.25,1.25,0,0,0,.24-1.06,2.38,2.38,0,0,1,.27-1.09c0,.24-.06.44-.06.67s.14.26.29.48c.28.41-.2.88-.45,1.15a2,2,0,0,0-.34.48,5.54,5.54,0,0,0-.12.71,2.28,2.28,0,0,1-.72,1,4.94,4.94,0,0,0-.72.58c-.22.25-.62.52-.32.79s.64.19,1,.25.89.21,1,.63a2,2,0,0,1-.16,1c-.1.21-.35.31-.23.63s.3.29.39.47.05.4,0,.65a2.27,2.27,0,0,0,0,.69A13.41,13.41,0,0,1,73,54.32c0,.26-.09,1,.1,1.23s1,0,1-.42-.45-.67-.61-.92-.24-.4.08-.41.71,1,1.25.76a.65.65,0,0,0,.24-.43c0-.25-.07-.25-.19-.45a1.51,1.51,0,0,1-.23-1,2.07,2.07,0,0,1,.26-1.07c.17.45-.16,1-.06,1.48.06.24.23.32.37.54a1.32,1.32,0,0,1,.17.68c0,.22.06.55-.12.65s-.43-.1-.65,0c-.75.33.53.49.64.58s.23,1.3.7.74c.18-.21,0-.46.08-.68.27-.53,1.69-.22,1.55-.87,0-.24-.31-.4-.24-.68s.22.08.44.06c.18-.2.5.84.75.77s0-.53,0-.65c0-.41.25-.1.47-.15a.32.32,0,0,0,.22-.17c.07-.22-.07-.16-.16-.3s-.09-.43-.18-.65c-.17-.39-.7-.61-.79-1,0-.18,0-.41.25-.26s.16.31.25.41c.36.42.6.11.45-.33-.07-.22-.39-.83.16-.7.16,0,.28.33.46.2s-.48-1.37-.48-1.69.28-1.23.48-.51A3,3,0,0,0,80,50.31c.17.21.3.15.5.25a.69.69,0,0,1,.34.42c.14.34.1.83.33,1.13s.33.25.43,0-.19-.47.11-.44c.12.3.59.64,1,.38s-.43-.52-.61-.69a4.43,4.43,0,0,0-.36-.38,3.46,3.46,0,0,1-.5-.27c-.13-.12-.27-.38,0-.48s.35.12.48.18c.29.12.75.24.69-.22.37-.15.27.19.45.25S83,50.08,83,50s-1.11-.48-.54-.73c.27-.12.42.17.59.23s.46-.08.69,0,.21.44.47.39.16-.38.18-.57.1-.13.08-.26-.14-.2-.14-.33c0-.46.34,0,.49-.2s-.14-.43-.19-.52a1.82,1.82,0,0,1-.24-.91c.36-.08.56.33.62.59,0,.1,0,.14,0,.24a.91.91,0,0,0,.16.11c.18.16.55.37.56-.06,0-.23-.18-.19-.26-.35s.25-.27.31-.47-.51-.35-.62-.62c-.17-.44.27-.34.49-.49s.19-.58.41-.23c.12.19,0,.47.24.62s.65.12.92.3.27.22.45.09.06-.23,0-.39a.45.45,0,0,1,.59-.47c.62.23-.32.65-.19.88s.22,0,.29,0,.1-.07.18.11a1.27,1.27,0,0,1,0,.39c-.17.5-.85.08-1.07.59-.09.21-.12.52.18.5s.29-.3.42-.37a.28.28,0,0,1,.44.23c0,.3-.24.28-.46.32s-.44.09-.31.33.4.07.49.3-.28.21-.44.3-.17.32,0,.53.32.32.26.6-.27.27-.3.5c0,.06.08.25.09.33a.82.82,0,0,1,0,.35c0,.14-.16,0-.14.21s.18.19.2.3,0,.17-.11.34a1.86,1.86,0,0,0-.13.34,3.84,3.84,0,0,1-.32.69c-.16.25-.36.28-.57.49s-.11.28.12.37.37.12.51.47a.37.37,0,0,0,.29,0,1.48,1.48,0,0,1,.22-.55,2.68,2.68,0,0,1,.79-.64c.18,0,.4,0,.57,0,.43-.16,0-.61.35-.81s.48.53.66.63.81-.1,1-.21-.19-.4-.11-.65.38-.38.56-.23c.34.29-.13,1.11.63,1a1.49,1.49,0,0,0,1.13-.74,4.82,4.82,0,0,0,.2-.61c.1-.21.35-.38.48-.59a4.07,4.07,0,0,0,.51-1c.09-.34.55-1,.89-.6s0,1,.38,1.07c.51.18.64-.42.82-.73a.66.66,0,0,1,1.09-.2c.44.35.7-.09,1.09-.3s1-.47,1.21-.16,0,.41.37.47.49-.27.68-.41a2.17,2.17,0,0,1,.95-.3c.26,0,.55,0,.81-.08a6.87,6.87,0,0,0,1.43-.14,4.38,4.38,0,0,1,1.2-.35,5.71,5.71,0,0,0,.95-.17,4.63,4.63,0,0,1,1-.18c.22,0,1.09.83,1,.15.56-.13.62-.42.68-.95,0-.21,0-.45-.18-.57s-.23,0-.33,0-.08-.16-.18-.29-.43,0-.57-.27a.56.56,0,0,1,.19-.65c.17-.12.47-.07.56-.24s0-.51-.06-.68-.07-.31.15-.42a1,1,0,0,1,.51,0,1.36,1.36,0,0,1,.47.68c.24-.17.12-.45.09-.67a7,7,0,0,1,0-.92c0-.18.07-.28-.15-.33s-.28.09-.33.26c-.35.08,0-.46-.38-.41-.2,0-.19.36-.42.38-.53.05.12-.77.19-.93s0-.48.1-.7.32-.15.43.09a3.65,3.65,0,0,1,.12.66c.09.33.26.34.33,0a3,3,0,0,0-.1-.93,3.55,3.55,0,0,0-.26-.84c-.1-.27-.19-.54-.27-.83a8.91,8.91,0,0,0-.68-1.87,5.24,5.24,0,0,1-.48-1A9.26,9.26,0,0,0,106.8,35a9.67,9.67,0,0,0-1.63-1.75A4.61,4.61,0,0,0,102,32.05a6.27,6.27,0,0,0-1.3.07c-.3.08-.82.44-.6.82.1.18.19.05.33.1s.12.31.17.5.27.38.46.56.2.37.38.48,1.27-.18,1-.57c-.17-.19-1.22.41-.89-.25a1.33,1.33,0,0,1,1.12-.61,1.91,1.91,0,0,1,.72,0c.18.08.32.31.5.41a1.85,1.85,0,0,1,.91.88,5.26,5.26,0,0,1,.37,2.81,10,10,0,0,0,.06,2c0,.19,0,.93.39.86s-.08-.61,0-.77c.35-.13,0-.78.15-1,.2-.42.73-.17.92.08s.15.28.32.37.42,0,.53.17c.31.45-.71.2-.61.65.14,0,.42,0,.52.07s0,.33-.08.47a3.52,3.52,0,0,0,.13,1.11,8.07,8.07,0,0,1,0,1.39,1.5,1.5,0,0,1-.65,1.16,5.9,5.9,0,0,1-2.4.89c-.22.06-.4.23-.62.3a5.05,5.05,0,0,1-.68.06,9.15,9.15,0,0,0-1.44.35,3.17,3.17,0,0,0-1.24.56c-.35.3-.38.83-.87.9s-.61-.73-1.09-.89a4.84,4.84,0,0,0-1.52,0,11.31,11.31,0,0,1-1.73-.36,4.69,4.69,0,0,1-1.28-.25,8.87,8.87,0,0,1-1-.62,6.13,6.13,0,0,1-.73-.35c-.18-.14-.29-.34-.47-.48a2.66,2.66,0,0,1-.6-.56A2,2,0,0,1,91,42.06a1,1,0,0,1,.19-.59c0-.06.16-.07.21-.13s0-.15.1-.28c-.19-.21-.07-.42,0-.66s-.07-.37-.2-.63-.2-.34-.29-.52-.13-.16-.11-.31.18-.15.23-.27c.15-.33-.18-.28-.38-.38s-.28-.32-.46-.51a1.12,1.12,0,0,0-.49-.29.5.5,0,0,0-.58.12c-.15.1-.32.25-.52.15a.29.29,0,0,1-.13-.45c.07-.07-.41-.24-.45-.24s-.34.09-.51,0a1.16,1.16,0,0,1-.53-.34c-.14-.19-.15-.37-.33-.55a3.78,3.78,0,0,1-.4-.4c-.18-.22-.56-1.16.09-.89.22.1.2.29.48.29s.51-.18.34-.42-.29-.16-.42-.21c0-.42.67-.4.62-.82,0-.23-.32-.22-.4-.42s.12-.37.34-.29a1.88,1.88,0,0,1,.89,1,1.8,1.8,0,0,1,.23.66c0,.3-.24.36-.41.56s-.24.56.06.55.68-1,.93-.51c.59.15-.05-.63-.15-.75a7.43,7.43,0,0,1-.58-.88c-.19-.31-.6-.58-.53-1s.46-.56.19-1-.8-.8-1.11-1.26c-.19-.27-.62-1.53-1-1.48-.12.54-1.13-.41-.25-.31,0,0,0-.85,0-.94a1.08,1.08,0,0,0-.39-.72,5.2,5.2,0,0,1-.8-.89c-.23-.32-.34-1-.75-.49-.08.11-.22.47-.38.34s0-.51-.13-.65c-.22-.35-1.14-.48-1.51-.62s-.52-.56-.75-.89-.27-.84-.71-.86-1.35.33-.71.59c.28.11.54-.13.78.08s.07.54.2.78.55.11.63.44-.4.3-.66.31c0,.19,0,.52-.26.34s-.06-.36,0-.52a.76.76,0,0,0-.8.25.67.67,0,0,0,0,.46c0,.13.29.18.12.35a.47.47,0,0,1-.46-.05c-.1-.16.14-.26.1-.42-.07-.35-.61-.12-.79-.3s.31-.36.29-.59-.35-.34-.51-.3-.28.3-.5.33-.31-.13-.5-.25-1.12-.47-.45-.84c.2-.11.54,0,.62-.22S77,23,76.77,23s-.55.61-1,.38a.49.49,0,0,1-.15-.53c.16-.47.8-.16,1.06-.42s0-.56-.08-.67c-.23-.26-1-.3-1.14-.54s.3-.24.43-.19a4.54,4.54,0,0,1,.62.32c.52.3.93-.07.44-.52-.1-.08-.36-.19-.36-.36s.4-.19.53-.06.11.75.55.8a.34.34,0,0,0,.38-.35c0-.27-.16-.26-.24-.47s0-.33-.12-.54a1,1,0,0,1-.26-.73,1.49,1.49,0,0,1,.3-1c.31-.32.73-.54.91,0,0,.17,0,.52.09.66s.49.06.69,0,.49,0,.35-.36a.85.85,0,0,0-.5-.41c-.22-.08-.42-.08-.51-.33s0-.4.24-.54a1,1,0,0,1,.66-.23c.24,0,.24.27.51.06s.41-.73.83-1c.24-.14,1.38-.09.91-.53a.51.51,0,0,0-.41-.13c.06,0,.16-1-.37-.55-.2.17-.12.58-.46.58s-.32-.28-.27-.5.25-.29.44-.48,0-.35-.27-.33c-.11,0-.16.11-.29.09s-.18-.11-.3-.17-.46-.08-.64-.22-.13-.37.14-.41a1.41,1.41,0,0,1,.41,0c.22.07.1.1.25.23.32.3.54.07.86,0a5.54,5.54,0,0,1,1.15-.11,1.34,1.34,0,0,0,.59-.24,3.17,3.17,0,0,1,.62-.18c.13,0,.15-.11.31-.11s.12.15.29.1.27-.38.47-.47a.73.73,0,0,1,.33,0s.11,0,.15,0,.1.11.12.12c.25.1.31.17.56,0,.07,0,0-.14.16-.2s.25,0,.36,0a.86.86,0,0,0,.38-.42c.08-.23.09-1.26.63-1s-.25.94-.06,1.23.4-.22.49-.28c.26-.18.21.32.48.19s0-.41-.09-.54A.77.77,0,0,1,88,11a2.13,2.13,0,0,1,.81-.77c.36-.18.73-.74.31-1.07-.19-.15-.47-.07-.63-.3s0-.48-.06-.7c-.14-.59-.62-.34-1-.17A2,2,0,0,0,86.63,9c-.07.31.26.62.21.93s-.5.58-.71.34.32-.52.37-.69c.12-.35-1-.65-1.2-.46s0,.25,0,.35-.21,0-.31.13-.08.47-.42.22c-.11-.08,0-.19-.18-.23a.3.3,0,0,0-.3.15c-.25-.15,0-.35-.11-.54s-.31-.2-.3-.47c0-.62.67-.48,1-.16.11.12.29.47.51.23s-.16-.49-.31-.6a2.47,2.47,0,0,0-1.18-.33c-.38-.06-.3-.18-.55-.41s-.46-.12-.61-.27c-.36-.35,0-1.08-.06-1.51.63-.1.61.87.8,1.24.08.14.41.58.62.38s-.13-.62-.23-.81a5.44,5.44,0,0,1-.36-1.27c-.1-.4-.35-.8-.47-1.19-.06-.19.09-1.4-.3-1.3s.16,1.12-.72.81a5.51,5.51,0,0,1-.58-.34A4.5,4.5,0,0,0,80.54,3c-.24-.07-.44-.23-.12-.35s.43.13.65.14.37-.19.56-.25.54,0,.72-.05c.38-.18.05-.95,0-1.27a2.09,2.09,0,0,0,0-.62c-.22-.06-.44.2-.65.26a.84.84,0,0,1-.77-.17c-.61-.41-1.06-.89-1.84-.68s-1.29.7-2,.7c-1.08,0-1.52.63-2,1.51-.24.47-.38.71-1,.56a2.77,2.77,0,0,0-1.36-.22,3.09,3.09,0,0,0-1.2.7c-.48.39-.44.79-.44,1.37,0,.38.08,1-.41,1s-.81-.26-1.24,0a3.5,3.5,0,0,0-.82.81c-.28.32-.41.69-.68,1l-26.64-1L8,4.92,0,31.17l.28,1.47c.43,0,20.87.91,20.87.91v1.5l1.26,0s.32.16.68-1.34c.71,0,4.51.2,4.51.2l0,.27.87-.08.12-.31,23.72.71,0,.63,12.81-.27,0,4.87Z"></path><path d="M78.43,58.55c-.11.21-.31.47,0,.66s.49,0,.66-.1a.7.7,0,0,0,.36-.65c0-.24-.46-.48-.45-.12A.92.92,0,0,1,78.43,58.55Z"></path><path d="M80.42,58c.19,0,.55-.16.6-.35a.35.35,0,0,1,.22-.06.88.88,0,0,1,0,.86c-.19.22-.66.2-.92.26s-.74.13-.77-.29.54-.28.8-.39Z"></path><path d="M81.64,57.42c.22-.09,1.34-.22,1,.35-.22.34-1.15.17-1.06-.32C81.6,57.46,81.61,57.43,81.64,57.42Z"></path><path d="M109.14,45.51c0-.09,0-.52.2-.35s0,.45-.19.38C109.16,45.52,109.15,45.52,109.14,45.51Z"></path><path d="M109,46.72c0-.09,0-.52.2-.34s0,.45-.19.38C109,46.74,109,46.73,109,46.72Z"></path><path d="M108.77,49.13c0-.2.13-1.17.29-.81s-.11,1-.29.89A.2.2,0,0,0,108.77,49.13Z"></path><path d="M83.74,56.35c.28-.28.62-.49.92-.75s.39-.12.65-.24.2-.31.34-.46.3-.06.46.06.43.1.32.42-.77.37-1.06.52-.27.26-.44.35-.42.15-.52.28,0,.46-.17.58-.23,0-.31.08-.11.16-.19.22c-.37.31-1,.36-.82-.28a1.4,1.4,0,0,1,.77-.76l.08,0Z"></path><path d="M82.11,65.26c.2-.09.44-.25.66-.19s.43.33.41.46c0,.31-1.23.34-1.18-.21.06,0,.13-.08.17-.09Z"></path><path d="M82.79,61.34a4.71,4.71,0,0,1,.75,0,.83.83,0,0,1,.3.14c.12.16,0,.1-.07.24s-.33.29-.17.53a.44.44,0,0,0,.56.1c.15-.12.07-.46,0-.66s-.08-.25.14-.51a4,4,0,0,0,.49-1.11c.17-.4.58-.49.85-.82s.25-.81.49-1.14.85-.22,1.06-.63c.1-.19.09-.33.33-.44s.45,0,.68,0,.48-1,.93-.66c.24.17.13,1.13.11,1.4s-.1.43.2.24a.78.78,0,0,0,.3-.62c0-.26-.12-.54.16-.68.58-.3.91,1,.65,1.37-.07.09-.23.09-.27.15-.2.26,0,.33.13.49s.1.39.46.39.41-.11.65,0,.47.26.51.41-.16.41-.15.62.22.37.24.65,0,.38.27.48.4.07.59.12a.24.24,0,0,1,0,.23,2.24,2.24,0,0,1-1.12.06c-.1,0-.16-.13-.25-.17s-.28,0-.38-.09-.22-.31-.35-.49a.92.92,0,0,1-.16-.31c0-.09.08-.22,0-.31-.27-.25-.36.42-.42.57s0,.66-.33.72a.41.41,0,0,1-.48-.51c-.31-.06-.33.13-.41.33s0,.11-.09.21-.23,0-.36,0-.45,0-.6-.17,0-.49-.17-.6h-.29c-.17.06-.2,0-.18.24s.24.3,0,.48A3.65,3.65,0,0,1,86,62a2.24,2.24,0,0,0-1.28.41c-.36.27-.32.93-.68,1.11S83.18,63.27,83,63s-.23-.37-.36-.52a2.48,2.48,0,0,0-.45-.35c-.27-.22-.48-.39-.14-.59A1.8,1.8,0,0,1,82.79,61.34Z"></path><path d="M93.6,58.75c.07,0,.26.89.46.52.08-.15-.28-.65-.45-.63A.63.63,0,0,1,93.6,58.75Z"></path><path d="M87.46,46.92c0,.09-1.08,1.11-.41,1,.27,0,.72-.9.57-1.07A1.18,1.18,0,0,1,87.46,46.92Z"></path><path d="M92.8,61c-.29-.1-.36,0-.51-.32s-.13-.37.22-.45.84-1,.86-.12c.54,0,.84.86.63,1.32s-.45.14-.65,0S92.8,61,92.8,61Z"></path><path d="M106.85,60.86a2.35,2.35,0,0,1-.66,1.44c-.31.37-.79.61-1,1-.42.6.6.12.82,0a3.31,3.31,0,0,0,.9-.89c.08-.17,0-.44.26-.49s.4.19.44.37-.1.24-.32.35-.17.22-.22.53c-.17,0-.27.07-.41.14s-.23.07-.38.13-.33.33-.53.51a.55.55,0,0,1-.76,0c-.12-.11-.11-.22-.26-.3a2.12,2.12,0,0,0-1.09,0c-.41,0-.82,0-1.22,0s-.76-.19-1,.05.36.33.3.65c-.37,0-.68.08-.23.33.26.14.53.26.8.39s.5.34.77.48a3.64,3.64,0,0,0,2,.14,3.64,3.64,0,0,1,1.13-.08,3,3,0,0,0,2,0c.52-.21,1.11-.57.94-1.26-.11-.42-.28-.78-.42-1.19s-.45-.69-.6-1.1a8.91,8.91,0,0,0-.78-1.54c-.15-.26-.48-1-.87-1-.23,0-.27.24-.18.44C106.41,60.32,106.83,60.43,106.85,60.86Z"></path><path d="M99.19,63a.67.67,0,0,1,.86,0c.15.08.35.06.47.21s.19.4.09.52-.84,0-1-.06S99.19,63,99.19,63Z"></path><path d="M98.42,61.84a1.84,1.84,0,0,1,.62,0c.24.12.13.22,0,.38s-.23.19-.49.19a.66.66,0,0,0,0,.14c-.22,0-.5,0-.44-.29C98.09,62.26,98.12,61.9,98.42,61.84Z"></path><path d="M95.06,51.15c.24,0,.4-.54.09-.62C95.15,50.53,94.62,51.15,95.06,51.15Z"></path><path d="M99.64,51c.24,0,.31-.61,0-.64C99.63,50.32,99.21,51,99.64,51Z"></path><path d="M87.65,36.83c.24,0,.3-.6,0-.63C87.63,36.2,87.22,36.9,87.65,36.83Z"></path><path d="M77.94,23.07c.23,0,.3-.6,0-.63C77.92,22.44,77.51,23.15,77.94,23.07Z"></path><path d="M79,24c.24,0,.31-.61,0-.64C79,23.36,78.6,24.07,79,24Z"></path><path d="M78.13,21.85c.24,0,.31-.61,0-.64C78.12,21.21,77.7,21.92,78.13,21.85Z"></path><path d="M84,9.05c.08.23.65.2.62-.12C84.61,8.93,83.84,8.64,84,9.05Z"></path><path d="M109.79,47.47a2,2,0,0,1-.2,1c-.13.23-.57.66-.33.92.07.08.44-.61.46-.65a8.1,8.1,0,0,0,.31-2.86,1.43,1.43,0,0,0,0-.77c-.09-.17-.21-.19-.33,0s0,.5,0,.67A15.92,15.92,0,0,1,109.79,47.47Z"></path><path d="M108.28,50.85c.2-.53,0-.35.06-.62a2.88,2.88,0,0,1,.18-.59c.45-.48.29.72.25.89-.2.85-.22,1.72-.49,2.55-.09.27-.39.84-.81.63s-.09-.75.07-1a1.85,1.85,0,0,0,.35-1.1c0-.2,0-.39.07-.56A.77.77,0,0,1,108.28,50.85Z"></path></g></g></svg>