<svg xmlns="http://www.w3.org/2000/svg" xmlns:xlink="http://www.w3.org/1999/xlink" id="Layer_1" x="0px" y="0px" width="380px" height="720px" viewBox="-11.5 -12 380 720" xml:space="preserve"><path d="M280.7,4c-1.4,1.6-3.601,4.8-4.8,6.9c-1.2,2.1-3.2,4.4-4.4,4.9c-3.6,1.6-10.1-0.5-19.3-6.5c-4.8-3.1-9.4-5.3-11-5.3 c-3.7,0-7.2,2.5-12.101,8.7c-3.3,4.3-5,5.5-8.6,6.4c-5.5,1.4-6.3,2.4-3.3,4c5.6,3,6,6.2,1.8,13.8c-1.7,3-3.7,7.9-4.4,10.9 c-0.8,2.9-3.3,8.2-5.6,11.7c-4.6,7.1-6.3,12.3-5.4,17.2c0.5,2.8,0.301,3.4-2,4.2c-4.6,1.8-4.699,10.9-0.3,19.8 c3.3,6.6,2.5,9-8.399,24.4c-14.2,20.3-16.101,25.9-11.5,34.8c1.3,2.5,3.6,8.4,5.1,13.1s4,11.1,5.6,14.3c1.601,3.2,2.9,6.6,2.9,7.5 c0,2.4-1.9,4.2-4.6,4.2c-3.601,0-4.801,2.5-4.601,9.6l0.2,6.6l-5.8,6.1c-3.2,3.4-7,7.9-8.5,9.9c-1.6,2.1-3.4,3.8-4.1,3.8 c-0.6,0-5.9,3.1-11.7,6.8c-6.9,4.6-11.4,8.2-13.3,11.1c-4.8,6.9-7.2,8.1-16.3,8.1c-10.1,0.1-14.2,1.1-18.6,4.6 c-6.7,5.3-7.8,9.8-8.7,35.9c-0.9,25.4-1.1,26.2-8.5,40.7c-2.5,4.7-4.5,9.3-4.5,10.1c0,0.9,0.8,2.9,1.7,4.5l1.7,3l-6.2,8.9 C75,380.2,73.2,384.1,72,393.6c-1.7,12.601-3.1,15.2-13.7,25.9l-9.7,9.6l-1.2,10.4c-1.8,14.3-3,17.9-8.6,24 c-2.6,2.9-5.3,6.5-5.9,8.1c-1.3,3.4-3,47.2-2.2,58.9c0.6,8.5-0.2,11.2-5,17.7c-1.6,2.1-1.9,3.6-1.4,7.1c0.5,3.3,0.2,5-1.1,6.8 c-1.4,2-1.7,4.601-1.5,15.4c0.1,9.7-0.4,15-1.8,21c-1,4.4-1.9,10.1-1.9,12.6c0,7-1.5,10.301-5.4,11.7c-4.8,1.8-5.6,3.101-6.7,11.4 c-0.5,4-1.9,9.5-3.1,12.3c-1.5,3.7-1.9,6.2-1.5,10.1c0.7,6.7,2.5,10,9.7,18c4.4,4.801,6.2,7.601,6.6,10.4c0.6,3.8,0.7,3.9,5.8,4.4 c2.8,0.3,20,1,38.1,1.6c84,2.6,122.5,4,166.7,5.6l15.7,0.601l5.8-5.5c3.2-3,6.899-5.8,8.3-6.2c4.7-1.4,6.8-3.4,8.4-8.3 c0.899-2.601,3-6.3,4.699-8.101c2.9-3.199,3.301-3.3,8.4-2.8c5.8,0.601,8-0.399,12.5-5.7c1.5-1.699,6.8-5,13-7.899l10.5-4.9l6.6,2.2 c8.4,2.9,13.601,2.3,14.4-1.8c1.2-5.7,5.7-15.5,10.6-23.4c6.301-10.1,9.9-17.5,9.9-20.7c0-2.199-0.3-2.3-4.5-1.899 c-2.5,0.3-4.5,0.399-4.5,0.2c0-0.101,0.5-1.5,1-2.9c0.9-2.5,0.5-3.3-5.1-9.9c-9-10.6-10.4-13.6-9-20.399 c1.199-6.101,1.399-12.2,0.5-14.7c-0.4-0.8-2.601-2.9-5-4.6c-2.7-1.801-6.601-6.4-10.5-12.2c-3.4-5-7.5-10.7-9-12.5 c-4.9-5.601-6.101-8.9-5.5-14.601c0.3-2.8,1-11.899,1.6-20.1c0.5-8.3,1.1-16.1,1.4-17.5c0.199-1.4,0.1-8.6-0.4-16s-1.4-23.9-2-36.5 c-0.6-12.7-1.7-34.9-2.5-49.5s-1.9-35.7-2.5-47s-1.5-29.3-2.1-40c-0.5-10.7-1.601-31.2-2.4-45.5s-1.7-31.6-2-38.5s-0.8-16.1-1-20.5 c-0.3-4.4-0.9-17-1.5-28s-1.5-28.3-2-38.5s-1.4-28.2-2-40c-1.8-35.8-4-71.3-4.4-71.7C283.4,1.1,282.1,2.3,280.7,4z"></path></svg>