<svg xmlns="http://www.w3.org/2000/svg" viewBox="0 0 32.96 65.78"><g id="Layer_2" data-name="Layer 2"><g id="Layer_1-2" data-name="Layer 1"><path d="M0,46.53a.82.82,0,0,0,.59-.32,3,3,0,0,0,.43-.52,1.66,1.66,0,0,0,.07-.55c0-.23.18-.26.28-.42s.07-.35.25-.48.26,0,.3-.32-.06-.78.24-1.07a3,3,0,0,1,.48-.31c.16-.1.24-.25.4-.36A5.16,5.16,0,0,1,3.57,42c.25-.12.14-.27.3-.42s.18,0,.28-.08.08-.1.15-.19.17-.14.44-.2a4.1,4.1,0,0,1,.53-.15,2.13,2.13,0,0,0,.57-.1,6.23,6.23,0,0,0,1.89-.6c.15-.12.23-.48.47-.41.08,0,.07.25.26.1,0,0,.12-.28.16-.34a2,2,0,0,0,.26-.76c0-.41-.11-.75.29-1a4.66,4.66,0,0,1,.45-.22,4.63,4.63,0,0,0,.4-.3,3.41,3.41,0,0,0,.58-.84c.23-.34.62-.25.9-.52s.21-.35.42-.43.25,0,.44-.23a1.18,1.18,0,0,1,.43-.34c.18-.07.37,0,.54,0a4,4,0,0,0,.53-.22.6.6,0,0,0,.41-.28c.05-.1,0-.21.09-.29s.16-.1.24-.16.18-.35.32-.42.34.1.53.05.31-.14.5-.19c.41-.1.65-.28.7-.7a1,1,0,0,0-.36-1,3.43,3.43,0,0,1-.54-.4c-.15-.15-.16-.32-.27-.47-.24-.35-.74-.43-1-.8a3.2,3.2,0,0,1-.18-.52A1.14,1.14,0,0,0,14,29a2.1,2.1,0,0,1-.31-.41c-.17-.25-.25-.2-.5-.3s-.18-.26-.27-.46-.24-.21-.4-.33-.17-.38-.17-.62a1.77,1.77,0,0,0-.08-.56c-.09-.36-.06-.76-.53-.81s-.7.37-1.11.14-.4-.65-.43-1a6.16,6.16,0,0,1-.18-1.1c0-.39.09-.76.08-1.17a.82.82,0,0,0-.6-.85c-.33-.14-.68-.36-1-.19-.18.08-.22.29-.4.35s-.36-.08-.45-.25a1,1,0,0,1,0-.6c0-.19,0-.36,0-.55s0-.38,0-.57-.15-.33-.19-.55.17-.28.24-.43-.07-.29-.18-.46a1,1,0,0,1-.17-.53c0-.16.23-.28.27-.45a3.32,3.32,0,0,1,.22-.93,3.64,3.64,0,0,1,.33-.69c.22-.24.47-.11.75-.17s.94-.77.9-1.09c0-.17-.26-.24-.3-.4s.16-.35.35-.39.36,0,.48-.23a.7.7,0,0,0,0-.53c-.1-.17-.33-.16-.41-.35s0-.39-.11-.58-.65-.35-.76-.81c0-.19,0-.36,0-.54s-.17-.2-.12-.45S9,9.4,9.4,9.31a2.46,2.46,0,0,0,1.29-.53c.32-.29.41-.81.75-1.07a1.42,1.42,0,0,0,.28-.2c.09-.16,0-.12-.06-.23s-.15-.09-.12-.26a.55.55,0,0,1,.2-.25c.17-.13.38-.21.55-.34a6.8,6.8,0,0,0,1.37-1.82,2,2,0,0,0,.45-1,1.67,1.67,0,0,1,.26-1.05c.19-.27.31-.8.58-1s.39,0,.52-.23,0-.31.23-.44c.11,0,.15,0,.25-.09a1,1,0,0,0,.14-.21c.13-.21.17-.2.43-.25a1.13,1.13,0,0,0,.53-.19A1,1,0,0,0,17.19,0L24.3,4.58l8.6,5.06c.2.53-.18,1.22-.32,1.71a5.51,5.51,0,0,0-.2.8c-.05.28-.21.52-.27.8a5.78,5.78,0,0,1-.08.6,2.06,2.06,0,0,1-.32.49c-.2.32-.31.65-.48,1a2.89,2.89,0,0,0-.32,1.12c0,.23-.09.44-.12.67a4.55,4.55,0,0,1,0,.53c-.08.31-.47.58-.71.77s-.33.11-.48.22a2.64,2.64,0,0,0-.36.39c-.16.17-.59.67-.81.27s.26-.68.38-.88.29-.32.25-.5-.32-.11-.44,0a2.55,2.55,0,0,0-.24.39c-.09.16-.11.31-.19.46s-.13.15-.18.24a1,1,0,0,1-.08.23c-.14.26-.23.14-.46.22-.45.15-.33.69-.42,1s0,.8-.25,1-.32.09-.42.25,0,.38-.06.57c-.05.37-.28.65-.35,1s-.19.27-.22.45.13.37.2.52c.19,0,.23.1.37.18s.29.14.42.22a.68.68,0,0,0,.45.13c.17-.05.15-.25.38-.25s.31.19.47.26c.32.12.22-.08.25-.31.3,0,.64.42.86.58s.28.07.48.12.28.11.42.15a8.2,8.2,0,0,1,.78.4c.13.06.28,0,.42.13s.21.26.4.21c0-.22-.13-.31-.23-.49s-.08-.44-.16-.56-.19-.05-.25-.15,0-.23,0-.29a1.91,1.91,0,0,1-.07-.59,1.4,1.4,0,0,1,.77.81,2,2,0,0,1,0,.77,1.36,1.36,0,0,0,.15.63,3.54,3.54,0,0,1,0,1.77c-.09.45-.11.93-.21,1.37a4.7,4.7,0,0,1-.18.74,2.34,2.34,0,0,0-.09.38,1.73,1.73,0,0,1-.14.34,2.77,2.77,0,0,0-.18.7c0,.21-.09.39-.13.6a11.91,11.91,0,0,0-.15,2.39,3.64,3.64,0,0,1-.27,1,4.38,4.38,0,0,0-.21,1.09c0,.32-.07.64-.11,1a2,2,0,0,1-.27.62c-.08.2,0,.36,0,.56a7.94,7.94,0,0,1-.15,1.09c0,.39.12.8,0,1.17,0,.11-.19.63-.34.6a5.71,5.71,0,0,1,.1-1.09,5.83,5.83,0,0,0-.08-.83,3.41,3.41,0,0,1,.2-.76.71.71,0,0,0,0-.41c0-.14-.14-.21-.12-.37,0-.34.36-.57.4-.92s.11-.71.17-1.1c0-.21.24-1-.23-.82-.07,0-.2.11-.19.2s.12.08.17.17c.14.25,0,.29-.15.45.12.13,0,.29-.12.36s-.18,0-.31-.13a1.48,1.48,0,0,0-.34-.21c-.21,0-.26.09-.1.23s.29,0,.32.2a.32.32,0,0,1-.19.3c-.09,0-.46,0-.38.2s.27,0,.4,0v0a.64.64,0,0,1,.16.47c0,.08-.08.15-.1.26s0,.19,0,.29-.28.32-.28.4.38,0,.38.3-.19.26-.29.41a2,2,0,0,0-.26.44,1.61,1.61,0,0,0,0,.62c0,.12.2.21.21.33s-.07.19-.12.19a.33.33,0,0,0-.39.28c0,.11.11.51,0,.57s-.3-.31-.48,0,.09.43,0,.6-.35.21-.29.45c0,.08.15.11.17.23a.28.28,0,0,1,0,.24c-.06.08-.18,0-.23.15a.53.53,0,0,0,0,.28c.12.22.35.08.48.23s-.12.33,0,.51.23.14.36.18c.08.26-.12.16-.24.22s-.14.14-.24.28-.17.12-.18.3.07.12.05.19,0,0-.12.07-.16.07-.23.11a1.73,1.73,0,0,0-.2.14c-.19.18-.16.25,0,.46s.29.24.23.4-.32,0-.43-.1-.27-.25-.41-.23-.21.32-.29.47a1.86,1.86,0,0,1-.29.64c-.19.2-.5.08-.67.24s-.06.28-.17.4-.59.2-.42.59c0,.1.2.32.34.3s.12-.26.25-.32c.4-.19.06.36,0,.46,0,.29.24.64,0,.93a.9.9,0,0,1-.92.08c-.4-.28.11-.41.3-.53s.31-.24.12-.37-.36.07-.49,0,0,0,0-.05,0-.21-.21-.14c-.07,0-.13.15-.2.19-.27.2-.23.06-.34-.14s-.31-.29-.47-.07,0,.47,0,.59a1.33,1.33,0,0,0,.09.6c.1.15.27.22.38.4s.13.1.08.23-.1.06-.2.12a.33.33,0,0,0-.2.2c-.06.1,0,.18-.1.27s.2.25.25.45,0,.53-.25.32,0-.21,0-.3-.13-.11-.17-.18-.07-.37-.35-.31c0,.32-.37.19-.48.4s.16.4-.06.61c-.07.08-.24,0-.29.2a1.22,1.22,0,0,0,0,.33c.08.19,0,.1.23.12s.23,0,.25.1c.25,0,1.14.41.89.72-.09.12-.3.15-.42.2a5,5,0,0,0-.83.42,2.17,2.17,0,0,0-.68.56c-.13.15-.38.62-.63.49,0-.19.11-.26.18-.41s.07-.26.14-.38a2.28,2.28,0,0,0,.2-.38,1.89,1.89,0,0,0,.08-.4c0-.15.3-.92-.17-.54-.24.19,0,.56-.28.7,0,.14-.13.12-.2.22s0,.19-.07.27a.39.39,0,0,1-.1-.08c-.25.24-.12.32-.08.63-.15.11-.31.15-.24.35s.38.22.22.52-.34.17-.48.29-.22.29-.33.4-.3.17-.4.3-.08.24-.15.35-.13.1-.17.17-.08.6-.25.29c-.2,0-.4-.2-.54-.11s-.11.29-.19.4-.31.23-.43.36-.23.51-.06.62a3.23,3.23,0,0,1,.48,0c-.14.18-.48,1.43-.8,1-.25.07.09.26-.17.35-.1,0-.47-.23-.52,0s.44.1.54.16.18.21.32.27c0,.29-.29.43-.45.66s-.12.56-.41.48c-.12,0-.24-.27-.28-.37s.06-.39-.05-.49-.39.06-.39.24.19.28.36.4a1.1,1.1,0,0,1,.31.37c0,.14-.15.35-.2.48s-.06.42-.3.26a1.28,1.28,0,0,0-.12-.22c-.07,0-.15,0-.22-.08s-.22-.51-.37-.22c-.06.13.17.27.24.38.23.41-.19.59-.5.69-.15.06-.48.15-.18.3.15.08.34-.07.46-.16s.2-.24.37-.2.21.27.09.41-.5.38-.72.6-.28.6-.53.84c-.43.44-.22-.63-.66-.33-.2.13-.17.24,0,.29s.49.07.27.36-.45.2-.63.26a1.16,1.16,0,0,1-.42,0c-.17,0-.29,0-.45.06a.56.56,0,0,1-.55-.39c-.12-.37.32-.4.25-.75-.36.18-.07-.39,0-.48a11.63,11.63,0,0,1,.46-1.29c.14-.23.39-.43.47-.67a2.82,2.82,0,0,1,.22-.73,4.45,4.45,0,0,0,.35-.64,1.37,1.37,0,0,0,0-1.14c-.09-.17-.23-.19-.36-.31s-.14-.21-.4-.27a2,2,0,0,1-.47-.21,1,1,0,0,0-.55-.09,2.58,2.58,0,0,1-1.12-.13c0-.18.12-.36,0-.51s-.31-.06-.46,0c-.34.17-.84-.14-1.16.19-.09.09-.05.27-.08.38-.07.28-.19.33-.45.17a1.44,1.44,0,0,1-.48-.36c-.17-.21-.09-.26,0-.5a.87.87,0,0,0-.06-.53c-.13-.27-.24-.13-.45-.24s-.11-.26-.21-.41-.66-.15-.81-.47c-.07-.14,0-.3,0-.45a.38.38,0,0,0-.48-.29c-.16.07-.18.31-.34.36s-.26-.08-.34-.15c-.24-.2-.17-.47-.21-.76-.32.13-.3-.43-.43-.57a.25.25,0,0,0-.19-.13c-.15,0-.08.12-.18.14s-.31-.12-.42-.24A1,1,0,0,1,3.45,54a1,1,0,0,0-.24-.41c-.24-.22-.43-.46-.68-.66-.47-.38-.72-1-1.18-1.35-.23-.19-.67-.11-.82-.31a1.88,1.88,0,0,1-.12-.48c-.06-.21-.29-.79-.1-1,.17.1.12.69.37.55a.09.09,0,0,0,0-.05c.17-.24,0-.9.07-1.2s.39-.61.21-.94-.49-.43-.73-.62-.2-.62-.2-1Z"></path><path d="M17.82,58.16a1.39,1.39,0,0,1,.51,0c0,.21-.27.8-.51.78s-.52-.62-.13-.71Z"></path><path d="M22.42,51.81a2.45,2.45,0,0,0-.15.54c0,.09-.13.09-.15.21s.09.15.08.24c.15.07.31,0,.45.05s.25.2.37.25a.87.87,0,0,0,.87,0c.2-.14,1.25-1.35.78-1.44-.14,0,.24-.19.19-.16.11-.06.24,0,.25-.21S25,51.14,25,51s.08-.25.06-.35-.29-.17-.4-.3-.09-.42-.32-.24,0,.35-.22.47-.32.16-.46.25-.43.16-.35.32.41-.09.55,0,.12.44,0,.55-.13,0-.21.17,0,.19-.12.28a.65.65,0,0,1-.72,0c-.12-.08-.17-.38-.31-.41A.11.11,0,0,0,22.42,51.81Z"></path><path d="M25.61,48.87c.19,0,.43,0,.5-.17a.33.33,0,0,0-.25-.42S25.46,48.52,25.61,48.87Z"></path><path d="M26.06,49.15a3.1,3.1,0,0,1,.54-.93,2.63,2.63,0,0,0,.47-.89,2.22,2.22,0,0,1,.28-.5c.14-.19.11-.3.18-.52a3.17,3.17,0,0,1,.58-.89,2.42,2.42,0,0,0,.24-.45.57.57,0,0,0,0-.26s-.08,0-.08-.09.07-.1.08-.15a1.22,1.22,0,0,0,.09-1c-.05-.11-.25-.41-.14-.54s.27.12.38.19c.26.19.43,0,.32-.28,0-.09-.13-.14-.16-.24s.05-.27,0-.39c.07-.1.14-.09.22-.13a.7.7,0,0,0,.2-.15c.11-.11.22-.31.32,0a1.68,1.68,0,0,1-.07.58c0,.18,0,.41,0,.59-.09.36-.34.66-.45,1a7,7,0,0,1-.42,1.07c-.16.32-.39.63-.55.95s-.17.67-.36,1a5,5,0,0,0-.58.84,2,2,0,0,1-.21.5c-.1.13-.24.23-.34.38a7.69,7.69,0,0,0-.47.9c-.06.12-.13.41-.23.49s-.47,0-.3-.17A6,6,0,0,0,26.06,49.15Z"></path><path d="M15.43,63s0,0,.1,0a.38.38,0,0,0-.06-.26A.43.43,0,0,0,15.43,63Z"></path><path d="M15.8,63.06s0,0-.06,0a.32.32,0,0,1,0-.16c.22,0,.33.16.07.16Z"></path></g></g></svg>