<svg xmlns="http://www.w3.org/2000/svg" viewBox="0 0 85.11 65.78"><g id="Layer_2" data-name="Layer 2"><g id="Layer_1-2" data-name="Layer 1"><path d="M61.27,63.74a.45.45,0,0,0-.65-.07.74.74,0,0,0-.25.69,1.87,1.87,0,0,0-.79,1.41c.34.09,1.21-.56,1.49-.78a2.44,2.44,0,0,0,.58-.53C61.84,64.06,61.47,64,61.27,63.74Z"></path><path d="M81.37,55.06c-.21-.14,0-.48.31-.38C81.71,54.89,81.37,55.06,81.37,55.06Z"></path><path d="M79.61,56.89a2.06,2.06,0,0,1,.28-.58c.14-.18.28-.28.51-.18,0,.42.17.33-.2.59-.15.11-.48.42-.59.1Z"></path><path d="M82.27,55.85c.17,0,.45.06.42.28s-.33-.07-.48-.08a.15.15,0,0,1,0-.16Z"></path><path d="M83,53.4c.18,0,1.06-.53,1.15-.43s-.56.79-.8.67C83.35,53.64,82.91,53.7,83,53.4Z"></path><path d="M73,62.63c-.12.16-.44.4-.34,0a4.52,4.52,0,0,1,.65-.36c.19-.09.6-.4.79-.37C74.08,62.33,73,62.63,73,62.63Z"></path><path d="M66.22,4.24c.12.27-.26.15-.32,0,.16-.1.19.06.35.1s-.18-.39-.18-.4c0-.23.16-.3.24-.5.16-.43,0-.37-.18-.64a.64.64,0,0,1,0-.71c.14-.33.31-.22.23-.62,0-.13-.22,0-.25-.22s.12-.28.16-.42A5.93,5.93,0,0,0,66.45,0S52.4.66,52.2.65,52,.54,51.79.43c-.36-.2-.7,0-1,.2a1.28,1.28,0,0,1-.5.2c-.21,0-.37,0-.56.08a1.7,1.7,0,0,0-.37.34c-.1.14-.13.33-.29.42s-.39,0-.56.13-.2.31-.35.42-.38.08-.56.15a2.56,2.56,0,0,0-.45.27,11.28,11.28,0,0,0-1.63,1.47,16.19,16.19,0,0,0-1.32,1.3c-.35.39-.76.73-1.12,1.11a9,9,0,0,0-.94,1.26,1.16,1.16,0,0,0-.28.55c0,.24.16.43.09.66a1.53,1.53,0,0,1-.53.6c-.19.15-.22.63-.49.63,0,0,0-.05,0-.07-.21,0-.26.23-.39.35a3.45,3.45,0,0,1-.45.33.79.79,0,0,0-.37.35.75.75,0,0,1-.31.37c-.17.11-.34.15-.52.25s-.29.21-.45.28a3.08,3.08,0,0,0-1,.5,2.72,2.72,0,0,1-.8.63c-.31.14-.61.31-.64.72s.11.28.31.39a.47.47,0,0,1,.26.42c0,.09-.13.58.15.43s0-.45.11-.58.26-.08.39-.16.1-.27.31-.13,0,.28.28.17c.15-.05.19-.22.39-.2,0,.07,0,.34,0,.39s.19,0,.29,0c.29.12-.07.37-.23.45a2.18,2.18,0,0,0-.56.25c-.31.28,0,.3.24.32-.07.45.54-.08.62-.16s.19-.25.34-.29.28,0,.44,0c0,0-.18.05-.24.13s0,.16,0,.25c-.09.31-.2.1-.4.25s-.07.18-.12.22-.22,0-.25.06.1.26.1.43-.54.6-.71.7-.2,0-.33-.12c-.29-.33-.73.14-.6.46.07.17.29.24.39.37a2.09,2.09,0,0,1,.31,1.06,5.21,5.21,0,0,1,.08.57c0,.28.08.26.26.45.34.35,0,.58-.13.95a5.51,5.51,0,0,1-.06.57,3.58,3.58,0,0,0-.2.49,1.81,1.81,0,0,1-1,.45c-.43,0-.64-.38-1-.09-.19.14-.32.36-.52.5s-.36.16-.52.24a2.37,2.37,0,0,0-.47.25c-.08.06-.12.11-.2.16s-.16,0-.24.1a1.83,1.83,0,0,0-.31.42c-.12.17-.28.29-.39.46s-.1.53-.26.6-.06-.13-.19-.18-.29.12-.43.21-.76.18-.73.59a.44.44,0,0,0-.46-.1,1.13,1.13,0,0,0-.55.15c-.14.13,0,.44-.18.53s-.28-.2-.38-.27A1.06,1.06,0,0,0,29,26a5.22,5.22,0,0,1-.57-.11,4.91,4.91,0,0,0-1.27,0c-.49.06-1,0-1.48.08a4.66,4.66,0,0,0-1.08.24c-.32.12-.69.46-1.05.41-.16,0-.31-.19-.46-.26s-.21,0-.29-.08-.09-.16-.16-.22a1.56,1.56,0,0,0-.82-.43,3.51,3.51,0,0,0-.25-.42.87.87,0,0,0-.52-.17c-.18,0-.36,0-.54,0s-.39-.22-.61-.29a2.71,2.71,0,0,0-1.09-.17,5.76,5.76,0,0,1-1.1-.08c-.43,0-.84.06-1.26,0a6.54,6.54,0,0,0-1.17,0c-.42,0-.81-.07-1.25-.05a9.44,9.44,0,0,0-2.38.35c-.8.23-1.61.43-2.4.68A12.39,12.39,0,0,0,8.07,26c-.17.07-.3.05-.29.23a6.21,6.21,0,0,1,0,1.61c-.08.27-.35.56-.24.86s.64.14.88.12a3.21,3.21,0,0,1,.55.05c.34,0,.7.11.62.58s-.47.48-.6.77c-.31.65.46,1.24.68,1.77a3.68,3.68,0,0,1,.18.59c.2,1-1.48,1.34-2,1.76-.19.15-.24.16-.28.42a.69.69,0,0,1-.26.52,2.08,2.08,0,0,0-.42.47,1,1,0,0,1-.3.42c-.25.21-.57.21-.81.4s-.33.45-.58.63-.61.12-.89.32a5.43,5.43,0,0,0-.57.49,1.53,1.53,0,0,1-.65.29,1,1,0,0,0-.43.3,4.42,4.42,0,0,1-.79.71c-.33.2-.62.43-.92.64a6,6,0,0,0-.93.57v3.79l15.13.25L47,44.37c0,.06.11.09.09.22a1.1,1.1,0,0,0,.68.26c.34.55-.13,1,.47,1.31s1.12-.26,1.34.53a2.42,2.42,0,0,0,.35.11c.14,0-.09.31-.09.34,0,.26,0,.11.1.28s.41.36.32.82c0,.08-.12.15-.12.24a8.82,8.82,0,0,1,.16.92c0,.13-.15.36-.14.46s.23.27.3.42.09.39.17.56a1.62,1.62,0,0,1,.25.51c.2.08.1.27.25.38s.4,0,.57.08.19.24.32.34.28.07.51.11.25.13.48.13.13-.09.25-.06.14.14.22.17.23,0,.27,0,.08.09.17.17c.48.4.76.93,1.28,1.32a8.94,8.94,0,0,0,1.39.68,17.51,17.51,0,0,1,1.61.84c.53.34,1,.76,1.53,1.09s1.23.43,1.77.76a9.85,9.85,0,0,1,1,.51s.61.65.62.45c0-.41-.11-.8-.1-1.21a2.08,2.08,0,0,0-.19-1.18c-.22-.35-.61-.34-.75-.76s.18-.7.16-1.1c0-.22-.17-.33-.19-.52s.12-.39.14-.62c.07-.57-.18-.52-.41-.88a1.41,1.41,0,0,1,.35-1.94.4.4,0,0,0,.07-.24c.34.23,0,.76,0,1.05a1.1,1.1,0,0,0,0,1,1.56,1.56,0,0,1,.24,1.13c-.08.45-.2.54-.05,1,.42,1.36,1.75,2.66,1.05,4.26h0c-.18.41-.47.75-.63,1.17s-.25,1-.44,1.4A3.71,3.71,0,0,0,62,62.25c0,.3.2.45.2.73s-.18.47-.24.69c-.15.65.57.75,1,.8.83.08.39-.64.93-.93.32-.17,1.45-.28.9.3-.16.16-.46.18-.44.48a2.88,2.88,0,0,0,1.55-.13c-.66-.3.47-.65.79-.69a3.17,3.17,0,0,1,0,.44.65.65,0,0,0,.75-.37c.12-.18.09-.25.34-.36a3,3,0,0,1,.42-.16c.32-.1.67,0,1-.1s1-.85,1-.05c.27,0,0-.47.11-.64s.66-.1.93-.11a5,5,0,0,0,1-.21c.67-.18,1.17-.57,1.86-.45,0-.34.34-.05.53-.07s.23-.23.24-.51c.27-.07.5.12.73.05s.23-.35.44-.41.17.11.32.11.18-.11.31-.1.33.25.53.2.32-.53.44-.73.24-.29.62-.37.3-.27.62-.31.57.11.83,0a5.4,5.4,0,0,0,1.21-.69c.43-.27.87-.45,1.31-.73a10.42,10.42,0,0,1,1.5-.83c.35-.15,1.42-.41,1.37-.92-.25,0-.53,0-.78,0a.66.66,0,0,0,.2.07c-.07.21-.3.09-.48.11.07.19,0,.21-.11.3s-.1-.12-.17-.07-.09.17-.1.18,0,.11-.07.14-.18,0-.25,0-.22.07-.21.27c-.21.1-.49.35-.71.24,0-.38-.19-.17-.32-.3s-.1-.3-.07-.48a.91.91,0,0,0-.21,0c-.19.15.05.82-.24.73s0-.72-.38-.62c-.27.06-.15.55-.45.69-.49.25-.33-.29-.55-.45-.06,0-.26,1.06-.46.46-.23,0-.17.68-.43.87s-.38,0-.43.19.31.15.1.41-2.15.31-2-.23c.11,0,.25,0,.34-.07s.11-.08.24-.24.22-.41.56-.49.37-.14.58-.44a.79.79,0,0,1,.73-.32c0-.22-.16-.27-.34-.25-.06-.28.11-.39.32-.54s.29-.36.47-.51,1.3-.3,1.1-.73a1.69,1.69,0,0,0-1.23.58,1.64,1.64,0,0,1-.56.45,2.23,2.23,0,0,0-.61.49c-.17.16-.4.22-.56.37s-.22.41-.36.58a2.2,2.2,0,0,1-1.38.54c-.47.09-1,0-1.46.12a13.67,13.67,0,0,1-2.2.22c-.31,0-.59-.08-.9-.07-.51,0-.34.2-.42.59s-.23.23-.55.24a.59.59,0,0,0,0,.37c-.26,0-.38-.28-.59-.37a1.91,1.91,0,0,0-.89,0c-.29.09-.16.49-.45.45s-.07-.46,0-.64c-.29-.21-1.06,0-1.37.13a1.38,1.38,0,0,0,.41.62.25.25,0,0,1-.21.13c-.06-.14-.09-.11-.2-.16,0,.11,0,.26-.18.24s-.08-.25-.16-.33c-.23-.2-.4,0-.64.08s-.44-.06-.45.38c0,.28.14.51,0,.79h-.09c-.19-.28-.35-.64-.76-.61-.15.25.16.31.12.54-.29,0-.27,0-.41.17s0,.38-.37.28a1.23,1.23,0,0,1-.15-1,2.18,2.18,0,0,1,.2-.49c.09-.11.27-.17.38-.28a1.28,1.28,0,0,1,.36-.3c.12-.07.36-.12.44-.25s0-.4,0-.58.26-.25.18-.35L65,56.67l2.51-1.61-.78-1.19.1-11.25-.21-.28,2.23-9.62-.31-.56V21.07c-.23-.35-.43-.36-.61-.71s0-.63-.48-.49-.19.73-.53.82c-.7.21-.15-1.84-.08-2.1a1.46,1.46,0,0,0,0-1.05,10.1,10.1,0,0,1-.16-1.14,4.81,4.81,0,0,1-.25-1.09c0-1.21-.94-2.27-.16-3.52a3.42,3.42,0,0,0,.61-1.24,5.68,5.68,0,0,0-.21-1.64c0-.24.15-.56-.1-.7,0,0-.12.55-.29.5s-.13-.84-.13-1c0-.52.42-.54.12-1s-.45-.21-.48-.86c0-.4,0-.8,0-1.2a2.79,2.79,0,0,1,0-.47Z"></path><path d="M8.17,29.16c.15-.28.77-.2,1,0s0,.54-.13.79-.33.61-.7.27a.91.91,0,0,1-.15-1Z"></path><path d="M39.86,10.36c-.16.11-.55.13-.65.31s0,.55.34.41a2.74,2.74,0,0,0,.51-.45C40.29,10.37,40.18,10.14,39.86,10.36Z"></path><path d="M36.1,17.14c.25.07.4-.16.4-.37a.2.2,0,0,0-.21,0S36,16.91,36.1,17.14Z"></path><path d="M35.85,14.65c-.56,0,.24.67.17,0A.33.33,0,0,0,35.85,14.65Z"></path><path d="M38,11.74c.21,0,.75-.34.72-.58-.13-.06-.29-.06-.34.07S37.93,11.44,38,11.74Z"></path><path d="M37.2,15c-.54.18-.28.46-.31.93.35,0,.72-.73.72-1A.84.84,0,0,0,37.2,15Z"></path><path d="M35.43,16.55c-.13.12-.29.26-.27.45.39.15.51-.15.51-.48A.5.5,0,0,0,35.43,16.55Z"></path></g></g></svg>