<svg xmlns="http://www.w3.org/2000/svg" viewBox="0 0 112.78 65.78"><g id="Layer_2" data-name="Layer 2"><g id="Layer_1-2" data-name="Layer 1"><path d="M16.25,6.54c0-.93,0-1.87,0-2.81,0-.71.1-1.43.06-2.14a7,7,0,0,1,0-1.59c0,.09-.68.29-.78.32-.32.1-.6.28-.93.39A11.15,11.15,0,0,0,13.53,1a12.86,12.86,0,0,0-2.17,1.42A6.49,6.49,0,0,1,10,3.07,14.42,14.42,0,0,0,7.51,4.34c-.87.58-1.94.82-2.82,1.32a5.18,5.18,0,0,1-1.36.57c-.55.14-1.3.26-1.34.88,0,.23,0,.47,0,.7-.05,1.35-.09,2.69-.14,4-.07,2.12-.15,4.23-.22,6.34l-.27,7.91L1,34.82Q.88,39.23.73,43.63C.64,46.35.54,49.07.45,51.78.37,54,.29,56.27.22,58.52.16,60.05.11,61.58.06,63.11L0,64.81l12.94.42,38.24.55,41.27-.24a6.08,6.08,0,0,1,4-3.24,3.35,3.35,0,0,1,2,.23c.41.23.65,1,1.21.8.35-.11.58-.83.88-1,.66-.43,1.41-.14,2.1-.39s.86-.62,1.45-.77c.38-.1.65.08.93-.24s.14-1.06.32-1.49a4.46,4.46,0,0,1,1.09-1.29c.45-.46,1-.72,1.47-1.11.24-.21.29-.54.61-.73.7-.43,1.06-.08,1.61-.83.3-.41.4-.82.93-.95s1.21.37,1.65-.3c.58-.88-1.77-2.17-2.23-2.74A6.75,6.75,0,0,0,109,49.84c-.8-.56-.68-1.14-1.13-1.84-.61-.94-1.95-.24-1.93-1.68,0-1,.07-2.4-1-2.9-.58-.27-1.42,0-1.6-.74a2.18,2.18,0,0,1,.37-1.89c-.21-.36-.66-.36-.55-.9.07-.3.71-.77.08-1,0-.41.31-.68.67-.82s.71-.13,1-.67c.22-.39,0-.84.13-1.11s.36,0,.49-.16a.69.69,0,0,0,.16-.62c0-.61-.78-1.15-1.06-1.71-.45-.92-.47-1.19.48-1.8.48-.31.91-.37,1.21-.88a8.59,8.59,0,0,1,.79-1.5,5.59,5.59,0,0,1,.67-.71c.33-.26.84-.33,1-.72.36-.65.21-1.64.45-2.35A6.88,6.88,0,0,1,110.47,24c.38-.38,1.79-.86,1.83-1.41,0-.35-.47-.54-.66-.74s-.29-.59-.59-.72-.45,0-.63,0-.33-.18-.52-.21c-.4-.07-.78.19-1.16.07s-.48-.48-.78-.68-.87,0-1.13-.58c-.11-.23,0-.87-.43-.63a2.74,2.74,0,0,1-.51-.84c-.06-.2.07-.37,0-.59s-.29-.22-.4-.34a.82.82,0,0,1-.26-.86c0-.13.16-.22.17-.46s-.12-.37-.16-.57c-.14-.75.35-1.76,0-2.41-.19-.31-.69-.38-.78-.67-.17-.57.75-.44.57-.88-.08-.19-.78-.21-1-.38s-.1-.36-.23-.47-.37-.07-.53-.17c-.36-.21-.34-.45-.85-.41s-.55.26-1,0c-.88-.54.1-1.46-.46-2-.28-.27-.73-.09-1-.3s-.3-.63-.38-1l-37.3.41Z"></path><path d="M10.21,2c.33.45-.57.56-.77.67s-.67.71-.73.17C8.71,2.87,10,1.71,10.21,2Z"></path></g></g></svg>