<svg xmlns="http://www.w3.org/2000/svg" viewBox="0 0 42.56 65.78"><g id="Layer_2" data-name="Layer 2"><g id="Layer_1-2" data-name="Layer 1"><path d="M28.34,9.46a10.18,10.18,0,0,1,1.08-.19A3.42,3.42,0,0,1,30.75,9a9,9,0,0,0,0,2,1.68,1.68,0,0,1,.17.88,5.54,5.54,0,0,1-.17.92c-.17.67,0,1.17-.37,1.8a2.15,2.15,0,0,0,.13,1.81,4.82,4.82,0,0,0,.49.72c.26.43.13.73.57,1s1,.65,1.57,1c.27.17.59.28.86.44a6.46,6.46,0,0,1,1.86,1.86c.26.43.73.84.83,1.35.06.28.07,1.16-.15,1.37s-.64-.26-.74-.52-.55-1.12-.69-.36a2.48,2.48,0,0,0,.37,1.1c.26.38,1,1,.78,1.54-.11.23-.48.36-.61.49a1.52,1.52,0,0,0-.36.73c0,.23-.06.71-.38.79s-.4-.38-.47-.63-.51-1.51-.73-1.42-.25.63-.3.73c-.14.31-.7,1.46-1,.66a2.2,2.2,0,0,1,.2-1.43c.13-.2.45-.39.53-.6s-.05-.67,0-1c0-.71.38-1,.67-1.59.18-.35.5-2.84-.28-2.71-.43.07-.21.59-.38.79s-.49,0-.67-.23-.13-.49-.22-.87-.28-.53-.57-.2-.1.66,0,.88c.23.63.91.76,1.23,1.28a1.41,1.41,0,0,1,.15.7c0,.19-.22.39-.23.49s.17,1.37-.25,1.16-.08-.81-.16-1.1-.48-.56-.86-.69-.61,0-.85-.33-.13-.59-.28-.81a6.67,6.67,0,0,0-.43-.61c-.23-.27-.39-.21-.54-.55A6.07,6.07,0,0,1,29,18a3.55,3.55,0,0,0-.51-1.83c-.22-.28-.48-.2-.5-.64s.24-.51.42-.75A3.64,3.64,0,0,0,29,13.08c.07-.7-.27-1.52-.67-.59-.23.55-.29,1.15-.53,1.69-.14.3-.15.51-.44.69s-.58,0-.51.52.34.56.52.83.06.24.17.37.24,0,.32.18c.16.32-.16.62-.2.87a4.79,4.79,0,0,0,.23,1.27c.08.45.34.83.45,1.28.23.91-.69,1.89.48,2.36.33.13.77,0,1.1.17,0,.05-.07.1-.09.16-.12.29-.5.22-.65.47s0,.7-.05,1c-.05.46-.18.36-.43.65s-.05.45,0,.81c0,1-.73.71-.8-.08,0-.16.05-.4-.07-.52s-.24,0-.39,0-.38-.47-.62-.45c.07.62-.3.31-.65.25s-.76,0-1.12-.09c-.83-.15-.57,1.71-.55,2.26a.82.82,0,0,0,.27,0c.28-.06,0-.75.49-.79a1.7,1.7,0,0,1,.46.08c.28,0,.61,0,.83.22s.24.93.21,1.31a3.69,3.69,0,0,0-.1.64c0,.24.14.24.21.46s0,.31-.18.47-.41.12-.33.41.3.21.44.22a.73.73,0,0,1,0,.63c-.14.18-.41.1-.5.29-.24.51.61.34.75.58.35.59-1.32,1.13-1.68,1.18s-.68-.14-.72.37.26.48.48.76a7.43,7.43,0,0,1,.69,1.6,6.5,6.5,0,0,1,.38,1.79,2,2,0,0,1-.09,1,2.07,2.07,0,0,0-.33,1.52c.05.32.32.63.26,1s-.48.25-.71.6.43,1.26,0,1.79c-.21.24-.5.12-.76.29-1.06.67-.1,1.71-.47,2.56s-1.29,1.27-1.54,2.21c-.06.24.16,1-.07,1.1s-.53-.35-.67-.47c-.31-.26-1.23-.4-.86-1s.94-.57,1-1.24a3,3,0,0,0-.21-.84A4.32,4.32,0,0,0,21.5,45c-.62-.14-.47.29-.5.66a4.43,4.43,0,0,1-.21,1c-.09.3-.33.53-.43.82-.17.55.07,1.06-.57,1.19s-1.18,0-1.76,0-1.23.46-1.93.53a5.6,5.6,0,0,0-1,.06c-.31.09-.5.35-.81.48a16,16,0,0,0-1.62.64,9.16,9.16,0,0,1-1.72.67,3.77,3.77,0,0,0-.76.36c-.17.09-.56.37-.74.34.05-.26-.18-.36-.13-.61.32,0,.35-.26.38-.5a.39.39,0,0,0,.15-.55c-.48-.08-.79.23-1.1.55a2.55,2.55,0,0,1-.45.42c-.17.1-.45.07-.59.19s0,.11,0,.34c0,.46-.15.52-.67.59-.73.1-1.41.1-2.13.26s-1.18.33-1.8.45-1.08.78-1.52.8c-1,0,.12-1,.27-1.21s.2-.49.4-.73c.42-.51,1.08-.73.75-1.57-.12-.31-.38-.41-.41-.77a2.68,2.68,0,0,1,.25-.92c.23-.76-.32-1-.46-1.59a1.15,1.15,0,0,1,.72-1.47c.13,0,.28,0,.41-.12s.08-.26.18-.33c.43-.26,1,.43,1.43.11l.59-15.93L5.28.66,28.4,0Z"></path><path d="M1,53.08c-.26,0-1.48.25-.75.62A.82.82,0,0,0,1,53.53c.21-.21.22-.55-.07-.45Z"></path><path d="M9.11,51.49c-.27,0-.64.06-.75.36.19.26.81.18,1,0a.76.76,0,0,0,0-.33.73.73,0,0,0-.25,0Z"></path><path d="M33.82,28.07c-.43-.08-.47.74,0,.76s.56-.84,0-.76Z"></path><path d="M29.87,28.92c-.08-.3.18-.51.36-.71.41-.46,0-.59.07-1.1s.48-.32.59.13-.13,1.12.18,1.5.89.3,1.24.55A1.45,1.45,0,0,1,32.9,31,3.91,3.91,0,0,1,32,32.4c-.36.45-1.11.87-1.23,0a5.7,5.7,0,0,1,.33-1.9c0-.24.15-.75-.05-.94s-.53.06-.77-.07A4.47,4.47,0,0,1,29.87,28.92Z"></path><path d="M28,36a2.79,2.79,0,0,1-.14.37,3.36,3.36,0,0,0-.24.38c-.14.38.08.54.23.87s.61,1.41.39,1.89-.49.14-.8.25-.33.38-.29.8.08.65.08,1a4.17,4.17,0,0,1,0,.5,3.82,3.82,0,0,0-.17.59c.24.47.53-.28.55-.46.05-.46.18-.36.37-.71s-.12-.6.38-.79c.28-.1.76.08,1-.19s-.19-.48-.32-.71.13-.53.24-.83c.17-.45-.21-.82-.25-1.25a3.29,3.29,0,0,1,.13-1.51,1.29,1.29,0,0,0,.21-.55c0-.26,0-.53,0-.79,0-.53-.27-1.75-.94-.87C28,34.53,28.17,35.38,28,36Z"></path><path d="M30.87,42.7c-.3.16-.63,0-.95.07s-.25.45-.57,0a1.23,1.23,0,0,1-.14-.91c.13-.39.4-.25.67-.45,0,0,.26-.32.21-.3.24-.1.12,0,.3.07.42.06.27,0,.61-.25s.64,0,.73-.36-.26-.61-.3-.84a13.34,13.34,0,0,0-.17-1.59c0-.17-.21-.57-.11-.71s.58,0,.78,0a10.75,10.75,0,0,0,.21-1.92A4.27,4.27,0,0,1,33,33.89a16.75,16.75,0,0,0,.52-1.66,3.72,3.72,0,0,0,.58-1.6c0-.56,0-.65.49-.93s.41-.39.64-.66a9.57,9.57,0,0,1,1.68-1.26c.21.24.12.68.16,1a1.91,1.91,0,0,1,0,.92c0,.17,0,.3-.16.43s-.38,0-.55.08c-.36.18-.11.48-.21.84s-.25.43-.25.83a3.8,3.8,0,0,0,.21,1,11,11,0,0,1,.13,2,5.65,5.65,0,0,0,.07,1c.07.33.33.45.39.75a3.29,3.29,0,0,1-.2,1,4.55,4.55,0,0,1-.31.9c-.11.22-.38.41-.38.72s.36.39.34.8c0,1-.76.14-1.22.05s-.59.06-.59.44c-.68.48-.62-.29-1-.52-.6-.36-.25.93-.25,1.2,0,.69-.38.62-.66,1.14-.12.24,0,.55-.43.5-.27,0-.35-.46-.61-.48S31.07,42.59,30.87,42.7Z"></path><path d="M39.42,26.2c-.25-.12-.69-.51-1-.44s-.17.49-.25.8-.19.6-.28.89a11.32,11.32,0,0,0-.26,1.84,3,3,0,0,0,.21,1.91c.14.26.34.47.16.8s-.66.39-.61.77.37.35.45.62a5.38,5.38,0,0,1-.05,1.38c-.29,0-.27-.34-.57-.28a1.58,1.58,0,0,0,.13,1.15c.29.34.72.16.61.72,0,.21-.19.3-.2.55a1.61,1.61,0,0,0,.08.54c.08.3.34.55.32.87s-.3.45-.32.73a1.16,1.16,0,0,0,.2.59c.13.26.42.47.54.71a1.5,1.5,0,0,1,0,1c-.06.33-.26.64-.29,1,0,.16,0,.38.12.45s.27-.13.38-.2c.26-.16.62-.12.85-.28s.3-.54.44-.69a3.92,3.92,0,0,1,1.34-.92c0-.86.35-.87,1-1.13a.68.68,0,0,0,0-.4c-.68,0-.71-.28-.75-.93a1,1,0,0,1,.05-.46c.17.12.25.48.44.56.41.18.38-.36.37-.66,0-.78-.19-1.55-.15-2.33a10.59,10.59,0,0,0-.32-3.07c-.2-.77-.94-1.33-.48-2.25.23-.47.43-.56.43-1.13s.17-1.38-.11-1.73-1-.43-1.4-.57A8.67,8.67,0,0,1,39.42,26.2Z"></path><path d="M16.06,62.37c.25,0,.45.43.66.52s.33-.17.51-.31c.22-.48-.65-.67-.49-1.16a.89.89,0,0,0,.33-.75c0-.32-.2-.49-.21-.85-.05-.88.77-.23,1.08.08s.33,1.25.3,1.85c0,.32-.08.61-.12.93a1.38,1.38,0,0,0-.05.45c.05.23.1.17.2.34a2,2,0,0,1,.35.62c.33.1.21.52.05.73a1.31,1.31,0,0,1-.74.35c-.55.15-1.34-.11-1.8.22-.2.15-.4.53-.78.34-.2-.1-.33-.56-.38-.76a2.29,2.29,0,0,1,.39-1.79c.11-.19.4-.76.63-.8Z"></path><path d="M29.91,26.14a.16.16,0,0,0-.05.21.35.35,0,0,0,.17.06c.15-.13,0-.28-.15-.27Z"></path><path d="M28.18,27a.17.17,0,0,0-.05.21.51.51,0,0,0,.17.07c.15-.14,0-.29-.15-.28Z"></path><path d="M37.4,27.1a.18.18,0,0,0-.06.21.67.67,0,0,0,.18.07c.15-.14,0-.29-.15-.28Z"></path><path d="M37,26a.18.18,0,0,0-.06.21.43.43,0,0,0,.18.06c.15-.13,0-.28-.15-.27Z"></path><path d="M29.06,28.9c-.07,0-.09.1,0,.22s.22-.09.18-.25S29.11,28.88,29.06,28.9Z"></path></g></g></svg>