<svg xmlns="http://www.w3.org/2000/svg" viewBox="0 0 405.56 190.21"><defs><style>.cls-1{fill:#fff;}</style></defs><g id="Layer_2" data-name="Layer 2"><g id="Layer_1-2" data-name="Layer 1"><path id="ts_2171" data-name="ts 2171" class="cls-1" d="M376.32,78.2a394.07,394.07,0,0,1-18.64,48C350.8,109.6,344.17,94,339,78.2a26.56,26.56,0,0,1-11.5,0c3.33,7.49,17.74,41.33,24.09,57.54l-30.82,0v-1.42a23.77,23.77,0,0,1-5.63.87c-9.88,0-10.13-9.5-10.13-18.89,0-10.88.62-30.52.87-31.77,3,0,8.88,0,13.26.25a19.22,19.22,0,0,1-.12-2.63,19.15,19.15,0,0,1,.12-2.62c-5.75.25-11.51.37-13.26.37.25-6.13.5-12.26,1-18.51h-.62l-10.39,4.38c.25,5.38.38,10.75.51,14q-2.64,0-8.26-.38a17.79,17.79,0,0,1,.25,2.5,23.32,23.32,0,0,1-.25,2.88c3.25-.25,6-.25,8.51-.25-.13,18.64-.88,29.9-.88,39,0,5.34,1.51,9.52,4.57,12.21l-29.29,0c-.59-6.7-.8-14.48-.8-21.26v-13c0-7.5.25-16.26,1-23.39a25.47,25.47,0,0,1-11.26,0c.75,7.13,1,15.89,1,23.39v13c0,6.78-.2,14.58-.79,21.28l-24.8,0c-.17-4.66-.18-9.26-.18-14,0-8.51.5-16,.5-23.14,0-17.27-10.75-21.77-20-21.77-9,0-15.39,4.13-20,11.26h-.25c0-3.38.13-6.63.38-10a22.66,22.66,0,0,1-10.63,0c.75,7.13,1,15.89,1,23.39v13c0,6.82-.21,14.66-.81,21.38l-19.75,0A89.39,89.39,0,1,0,0,89.39a88.9,88.9,0,0,0,14.94,49.47H15l1.15,1.79,335.54-.53a210.22,210.22,0,0,1-14.45,28.34,14.68,14.68,0,0,1,8.51,0c5.25-17,34.31-81.13,38.82-90.26a13.85,13.85,0,0,1-8.26,0ZM159.94,114.6v-13c0-7.5.25-16.26,1-23.39a25.47,25.47,0,0,1-11.26,0c.75,7.13,1,15.89,1,23.39v13c0,6.83-.21,14.7-.81,21.43l-37,.06c-.35-5.45-.35-12.82-.35-32.24,0-9.76,4.75-17.39,12.76-17.39,2.5,0,5.25,1,6.13,2l.87-.63c0-3.37,0-8.13.88-10.13a9.52,9.52,0,0,0-4-.75c-5.76,0-11.76,4.5-16.52,13.51l-.25-.13A99.38,99.38,0,0,1,113,78.2a22.6,22.6,0,0,1-5,.63,25.82,25.82,0,0,1-5.26-.63c.5,10.76.5,19.39.5,25.9v4c0,12.65,0,21.82-.37,28l-32.11.05c-.48-10.16-.92-20.41-.92-30.55V84.08q0-12.94.38-25.89A251,251,0,0,1,97,59.56a14.09,14.09,0,0,1-.62-3.88,15.07,15.07,0,0,1,.62-4c-10.75.38-21.51.63-32.27.63s-21.51-.25-32.27-.63a15,15,0,0,1,.62,3.88,14.24,14.24,0,0,1-.62,4,251.22,251.22,0,0,1,26.77-1.37q.38,12.94.37,25.89V105.6c0,10.14-.44,20.4-.91,30.56l-38,.06a83.12,83.12,0,1,1,139.77-3.73C160.08,126.64,159.94,120.27,159.94,114.6ZM226,110.1c0,8.9-.53,17.38-.81,25.83l-28.91,0c-.6-6.72-.81-14.56-.81-21.37V104c0-13,5.26-20.52,16.89-20.52,8.26,0,13.64,6.76,13.64,19Zm39.65-45.83a6.38,6.38,0,1,0-6.38-6.37A6.4,6.4,0,0,0,265.64,64.27ZM155.8,51.52a6.38,6.38,0,1,0,6.38,6.38A6.4,6.4,0,0,0,155.8,51.52Zm247.53,18a7.47,7.47,0,0,0-5.48-2.31,7.27,7.27,0,0,0-5.44,2.31,8,8,0,0,0-1.68,2.56,8.37,8.37,0,0,0-.59,3.09,8,8,0,0,0,2.27,5.59,7.48,7.48,0,0,0,5.44,2.35A7.74,7.74,0,0,0,405,78.25a8.49,8.49,0,0,0,.6-3.08A8,8,0,0,0,403.33,69.52Zm-1.3,10a5.2,5.2,0,0,1-1.86,1.32,6.34,6.34,0,0,1-4.64,0,5.19,5.19,0,0,1-1.83-1.32,5.44,5.44,0,0,1-1.25-1.93,7,7,0,0,1-.43-2.46,6,6,0,0,1,1.68-4.44A5.44,5.44,0,0,1,397.85,69,5.53,5.53,0,0,1,402,70.73a6.76,6.76,0,0,1,0,8.83Zm-1.49-1.91-1.21-1.79a2.8,2.8,0,0,0,1.47-.7,2.2,2.2,0,0,0,.51-.84,4,4,0,0,0,.18-1.22q0-2.86-3.15-2.84H395c-.09,0-.13,0-.13.12v9.13a.12.12,0,0,0,.13.13h1.5c.08,0,.12,0,.12-.13V75.93h.66l2.51,3.65a.15.15,0,0,0,.11.06h1.74a.14.14,0,0,0,.13-.07.11.11,0,0,0,0-.13Zm-2.7-3.38h-1.23V71.92h1.26a3.56,3.56,0,0,1,1.33.22,1,1,0,0,1,.54,1,1,1,0,0,1-.62,1A3.75,3.75,0,0,1,397.84,74.27Zm-246.68,88.1a6.1,6.1,0,0,1,6.47-6.23c3.77,0,5.27,2.86,6,4.72h.61a15.31,15.31,0,0,1,1.35-4.21,11.06,11.06,0,0,0-7.43-2.36c-6.67,0-10.88,3.91-10.88,9.48,0,11.79,15.8,7.83,15.8,17.06a6.92,6.92,0,0,1-7.17,7.27,8.66,8.66,0,0,1-7.93-5.21h-.6a14.69,14.69,0,0,1-1,4.46,12.21,12.21,0,0,0,8.28,2.86c7.73,0,12.29-5.17,12.29-11.29C167,167.83,151.16,171.75,151.16,162.37Zm79.07,24.83c0-4.92-.15-10.84-.15-19.27,0-4.31.2-8.67.4-13a12.23,12.23,0,0,1-4.92,0c.2,4.32.4,8.68.4,13v8.63c0,4.32-.2,8.68-.4,13,3.11-.15,6.17-.25,9.28-.25s6.18.1,9.24.25a5.32,5.32,0,0,1-.26-1.51,5.25,5.25,0,0,1,.26-1.5A101,101,0,0,1,230.23,187.2Zm-35.12-32.91c-11,0-18.76,6.57-18.76,18s7.72,18,18.76,18,18.81-6.57,18.81-18S206.2,154.29,195.11,154.29Zm0,34.06c-7.83,0-13.85-5-13.85-16.1s6-16.11,13.85-16.11,13.9,5,13.9,16.11S203,188.35,195.11,188.35ZM316,162.87c0-6-4.77-7.93-10.44-7.93-1.9,0-3.81.25-5.72.25s-3.81-.1-5.71-.25c.2,4.32.4,8.68.4,13v8.63c0,4.32-.2,8.68-.4,13a12.18,12.18,0,0,1,4.91,0c-.2-4.32-.4-8.68-.4-13V172.9h1.91c4.31,4.37,11,13.6,13,16.66a19.05,19.05,0,0,1,2.91-.25,20.37,20.37,0,0,1,3,.25c-2.91-3.26-11.29-14.05-13.75-17.11C309.55,172,316,169.34,316,162.87Zm-17.36,7.92v-2.86c0-3.61.15-7.22.3-10.88a46.61,46.61,0,0,1,4.87-.25c3.41,0,7.77,1.3,7.77,6.57,0,6-5.46,7.68-9.58,7.68A15.69,15.69,0,0,1,298.66,170.79Zm-31-16.5c-5.12,11.84-10.34,23.53-15.71,35.27a7,7,0,0,1,3.72,0,133.91,133.91,0,0,1,4.86-13.45c2.06-.05,4.07-.1,6.12-.1,2.21,0,4.42.05,6.58.1,1.8,4.47,4.21,10,5.16,13.45a14.28,14.28,0,0,1,5.32,0c-2.66-5.37-10.18-23.63-15.1-35.27ZM267,173.9c-1.75,0-3.66-.1-5.41-.1L267,161.06l5.57,12.74C270.72,173.85,268.81,173.9,267,173.9Z"/></g></g></svg>